<?xml version="1.0" encoding="utf-8" standalone="no"?>
<!DOCTYPE svg PUBLIC "-//W3C//DTD SVG 1.1//EN"
  "http://www.w3.org/Graphics/SVG/1.1/DTD/svg11.dtd">
<svg xmlns:xlink="http://www.w3.org/1999/xlink" width="430.285545pt" height="300.811744pt" viewBox="0 0 430.285545 300.811744" xmlns="http://www.w3.org/2000/svg" version="1.1">
 <metadata>
  <rdf:RDF xmlns:dc="http://purl.org/dc/elements/1.1/" xmlns:cc="http://creativecommons.org/ns#" xmlns:rdf="http://www.w3.org/1999/02/22-rdf-syntax-ns#">
   <cc:Work>
    <dc:type rdf:resource="http://purl.org/dc/dcmitype/StillImage"/>
    <dc:date>2026-06-12T09:19:37.524482</dc:date>
    <dc:format>image/svg+xml</dc:format>
    <dc:creator>
     <cc:Agent>
      <dc:title>Matplotlib v3.11.0, https://matplotlib.org/</dc:title>
     </cc:Agent>
    </dc:creator>
   </cc:Work>
  </rdf:RDF>
 </metadata>
 <defs>
  <style type="text/css">*{stroke-linejoin: round; stroke-linecap: butt}</style>
 </defs>
 <g id="figure_1">
  <g id="patch_1">
   <path d="M 0 300.811744 
L 430.285545 300.811744 
L 430.285545 0 
L 0 0 
z
" style="fill: #ffffff"/>
  </g>
  <g id="axes_1">
   <g id="line2d_1">
    <path d="M 215.142773 266.147604 
L 215.142773 54.281383 
" clip-path="url(#p06475955e3)" style="fill: none; stroke: #bbbbbb; stroke-linecap: square"/>
   </g>
   <g id="patch_2">
    <path d="M 42.511037 74.683315 
C 43.75965 74.683315 44.957291 74.187236 45.840193 73.304333 
C 46.723096 72.421431 47.219175 71.22379 47.219175 69.975177 
C 47.219175 68.726564 46.723096 67.528923 45.840193 66.64602 
C 44.957291 65.763118 43.75965 65.267038 42.511037 65.267038 
C 41.262424 65.267038 40.064783 65.763118 39.18188 66.64602 
C 38.298978 67.528923 37.802899 68.726564 37.802899 69.975177 
C 37.802899 71.22379 38.298978 72.421431 39.18188 73.304333 
C 40.064783 74.187236 41.262424 74.683315 42.511037 74.683315 
z
" clip-path="url(#p06475955e3)" style="fill: #6a3d9a"/>
   </g>
   <g id="patch_3">
    <path d="M 35.841174 76.252694 
L 49.180899 76.252694 
L 47.219175 88.02304 
L 37.802899 88.02304 
z
" clip-path="url(#p06475955e3)" style="fill: #6a3d9a"/>
   </g>
   <g id="patch_4">
    <path d="M 38.195243 99.401041 
L 41.334002 99.401041 
L 41.334002 87.630695 
L 38.195243 87.630695 
z
" clip-path="url(#p06475955e3)" style="fill: #6a3d9a"/>
   </g>
   <g id="patch_5">
    <path d="M 43.688071 99.401041 
L 46.82683 99.401041 
L 46.82683 87.630695 
L 43.688071 87.630695 
z
" clip-path="url(#p06475955e3)" style="fill: #6a3d9a"/>
   </g>
   <g id="patch_6">
    <path d="M 81.745522 74.683315 
C 82.994135 74.683315 84.191776 74.187236 85.074679 73.304333 
C 85.957581 72.421431 86.453661 71.22379 86.453661 69.975177 
C 86.453661 68.726564 85.957581 67.528923 85.074679 66.64602 
C 84.191776 65.763118 82.994135 65.267038 81.745522 65.267038 
C 80.496909 65.267038 79.299268 65.763118 78.416366 66.64602 
C 77.533463 67.528923 77.037384 68.726564 77.037384 69.975177 
C 77.037384 71.22379 77.533463 72.421431 78.416366 73.304333 
C 79.299268 74.187236 80.496909 74.683315 81.745522 74.683315 
z
" clip-path="url(#p06475955e3)" style="fill: #6a3d9a"/>
   </g>
   <g id="patch_7">
    <path d="M 75.07566 76.252694 
L 88.415385 76.252694 
L 86.453661 88.02304 
L 77.037384 88.02304 
z
" clip-path="url(#p06475955e3)" style="fill: #6a3d9a"/>
   </g>
   <g id="patch_8">
    <path d="M 77.429729 99.401041 
L 80.568488 99.401041 
L 80.568488 87.630695 
L 77.429729 87.630695 
z
" clip-path="url(#p06475955e3)" style="fill: #6a3d9a"/>
   </g>
   <g id="patch_9">
    <path d="M 82.922557 99.401041 
L 86.061316 99.401041 
L 86.061316 87.630695 
L 82.922557 87.630695 
z
" clip-path="url(#p06475955e3)" style="fill: #6a3d9a"/>
   </g>
   <g id="patch_10">
    <path d="M 120.980008 74.683315 
C 122.228621 74.683315 123.426262 74.187236 124.309164 73.304333 
C 125.192067 72.421431 125.688146 71.22379 125.688146 69.975177 
C 125.688146 68.726564 125.192067 67.528923 124.309164 66.64602 
C 123.426262 65.763118 122.228621 65.267038 120.980008 65.267038 
C 119.731395 65.267038 118.533754 65.763118 117.650851 66.64602 
C 116.767949 67.528923 116.271869 68.726564 116.271869 69.975177 
C 116.271869 71.22379 116.767949 72.421431 117.650851 73.304333 
C 118.533754 74.187236 119.731395 74.683315 120.980008 74.683315 
z
" clip-path="url(#p06475955e3)" style="fill: #6a3d9a"/>
   </g>
   <g id="patch_11">
    <path d="M 114.310145 76.252694 
L 127.64987 76.252694 
L 125.688146 88.02304 
L 116.271869 88.02304 
z
" clip-path="url(#p06475955e3)" style="fill: #6a3d9a"/>
   </g>
   <g id="patch_12">
    <path d="M 116.664214 99.401041 
L 119.802973 99.401041 
L 119.802973 87.630695 
L 116.664214 87.630695 
z
" clip-path="url(#p06475955e3)" style="fill: #6a3d9a"/>
   </g>
   <g id="patch_13">
    <path d="M 122.157042 99.401041 
L 125.295801 99.401041 
L 125.295801 87.630695 
L 122.157042 87.630695 
z
" clip-path="url(#p06475955e3)" style="fill: #6a3d9a"/>
   </g>
   <g id="patch_14">
    <path d="M 160.214493 74.683315 
C 161.463106 74.683315 162.660747 74.187236 163.54365 73.304333 
C 164.426552 72.421431 164.922631 71.22379 164.922631 69.975177 
C 164.922631 68.726564 164.426552 67.528923 163.54365 66.64602 
C 162.660747 65.763118 161.463106 65.267038 160.214493 65.267038 
C 158.96588 65.267038 157.768239 65.763118 156.885337 66.64602 
C 156.002434 67.528923 155.506355 68.726564 155.506355 69.975177 
C 155.506355 71.22379 156.002434 72.421431 156.885337 73.304333 
C 157.768239 74.187236 158.96588 74.683315 160.214493 74.683315 
z
" clip-path="url(#p06475955e3)" style="fill: #6a3d9a"/>
   </g>
   <g id="patch_15">
    <path d="M 153.544631 76.252694 
L 166.884356 76.252694 
L 164.922631 88.02304 
L 155.506355 88.02304 
z
" clip-path="url(#p06475955e3)" style="fill: #6a3d9a"/>
   </g>
   <g id="patch_16">
    <path d="M 155.8987 99.401041 
L 159.037459 99.401041 
L 159.037459 87.630695 
L 155.8987 87.630695 
z
" clip-path="url(#p06475955e3)" style="fill: #6a3d9a"/>
   </g>
   <g id="patch_17">
    <path d="M 161.391528 99.401041 
L 164.530287 99.401041 
L 164.530287 87.630695 
L 161.391528 87.630695 
z
" clip-path="url(#p06475955e3)" style="fill: #6a3d9a"/>
   </g>
   <g id="patch_18">
    <path d="M 42.511037 113.9178 
C 43.75965 113.9178 44.957291 113.421721 45.840193 112.538819 
C 46.723096 111.655916 47.219175 110.458275 47.219175 109.209662 
C 47.219175 107.961049 46.723096 106.763408 45.840193 105.880506 
C 44.957291 104.997603 43.75965 104.501524 42.511037 104.501524 
C 41.262424 104.501524 40.064783 104.997603 39.18188 105.880506 
C 38.298978 106.763408 37.802899 107.961049 37.802899 109.209662 
C 37.802899 110.458275 38.298978 111.655916 39.18188 112.538819 
C 40.064783 113.421721 41.262424 113.9178 42.511037 113.9178 
z
" clip-path="url(#p06475955e3)" style="fill: #6a3d9a"/>
   </g>
   <g id="patch_19">
    <path d="M 35.841174 115.48718 
L 49.180899 115.48718 
L 47.219175 127.257525 
L 37.802899 127.257525 
z
" clip-path="url(#p06475955e3)" style="fill: #6a3d9a"/>
   </g>
   <g id="patch_20">
    <path d="M 38.195243 138.635526 
L 41.334002 138.635526 
L 41.334002 126.865181 
L 38.195243 126.865181 
z
" clip-path="url(#p06475955e3)" style="fill: #6a3d9a"/>
   </g>
   <g id="patch_21">
    <path d="M 43.688071 138.635526 
L 46.82683 138.635526 
L 46.82683 126.865181 
L 43.688071 126.865181 
z
" clip-path="url(#p06475955e3)" style="fill: #6a3d9a"/>
   </g>
   <g id="patch_22">
    <path d="M 81.745522 113.9178 
C 82.994135 113.9178 84.191776 113.421721 85.074679 112.538819 
C 85.957581 111.655916 86.453661 110.458275 86.453661 109.209662 
C 86.453661 107.961049 85.957581 106.763408 85.074679 105.880506 
C 84.191776 104.997603 82.994135 104.501524 81.745522 104.501524 
C 80.496909 104.501524 79.299268 104.997603 78.416366 105.880506 
C 77.533463 106.763408 77.037384 107.961049 77.037384 109.209662 
C 77.037384 110.458275 77.533463 111.655916 78.416366 112.538819 
C 79.299268 113.421721 80.496909 113.9178 81.745522 113.9178 
z
" clip-path="url(#p06475955e3)" style="fill: #6a3d9a"/>
   </g>
   <g id="patch_23">
    <path d="M 75.07566 115.48718 
L 88.415385 115.48718 
L 86.453661 127.257525 
L 77.037384 127.257525 
z
" clip-path="url(#p06475955e3)" style="fill: #6a3d9a"/>
   </g>
   <g id="patch_24">
    <path d="M 77.429729 138.635526 
L 80.568488 138.635526 
L 80.568488 126.865181 
L 77.429729 126.865181 
z
" clip-path="url(#p06475955e3)" style="fill: #6a3d9a"/>
   </g>
   <g id="patch_25">
    <path d="M 82.922557 138.635526 
L 86.061316 138.635526 
L 86.061316 126.865181 
L 82.922557 126.865181 
z
" clip-path="url(#p06475955e3)" style="fill: #6a3d9a"/>
   </g>
   <g id="patch_26">
    <path d="M 120.980008 113.9178 
C 122.228621 113.9178 123.426262 113.421721 124.309164 112.538819 
C 125.192067 111.655916 125.688146 110.458275 125.688146 109.209662 
C 125.688146 107.961049 125.192067 106.763408 124.309164 105.880506 
C 123.426262 104.997603 122.228621 104.501524 120.980008 104.501524 
C 119.731395 104.501524 118.533754 104.997603 117.650851 105.880506 
C 116.767949 106.763408 116.271869 107.961049 116.271869 109.209662 
C 116.271869 110.458275 116.767949 111.655916 117.650851 112.538819 
C 118.533754 113.421721 119.731395 113.9178 120.980008 113.9178 
z
" clip-path="url(#p06475955e3)" style="fill: #6a3d9a"/>
   </g>
   <g id="patch_27">
    <path d="M 114.310145 115.48718 
L 127.64987 115.48718 
L 125.688146 127.257525 
L 116.271869 127.257525 
z
" clip-path="url(#p06475955e3)" style="fill: #6a3d9a"/>
   </g>
   <g id="patch_28">
    <path d="M 116.664214 138.635526 
L 119.802973 138.635526 
L 119.802973 126.865181 
L 116.664214 126.865181 
z
" clip-path="url(#p06475955e3)" style="fill: #6a3d9a"/>
   </g>
   <g id="patch_29">
    <path d="M 122.157042 138.635526 
L 125.295801 138.635526 
L 125.295801 126.865181 
L 122.157042 126.865181 
z
" clip-path="url(#p06475955e3)" style="fill: #6a3d9a"/>
   </g>
   <g id="patch_30">
    <path d="M 160.214493 113.9178 
C 161.463106 113.9178 162.660747 113.421721 163.54365 112.538819 
C 164.426552 111.655916 164.922631 110.458275 164.922631 109.209662 
C 164.922631 107.961049 164.426552 106.763408 163.54365 105.880506 
C 162.660747 104.997603 161.463106 104.501524 160.214493 104.501524 
C 158.96588 104.501524 157.768239 104.997603 156.885337 105.880506 
C 156.002434 106.763408 155.506355 107.961049 155.506355 109.209662 
C 155.506355 110.458275 156.002434 111.655916 156.885337 112.538819 
C 157.768239 113.421721 158.96588 113.9178 160.214493 113.9178 
z
" clip-path="url(#p06475955e3)" style="fill: #6a3d9a"/>
   </g>
   <g id="patch_31">
    <path d="M 153.544631 115.48718 
L 166.884356 115.48718 
L 164.922631 127.257525 
L 155.506355 127.257525 
z
" clip-path="url(#p06475955e3)" style="fill: #6a3d9a"/>
   </g>
   <g id="patch_32">
    <path d="M 155.8987 138.635526 
L 159.037459 138.635526 
L 159.037459 126.865181 
L 155.8987 126.865181 
z
" clip-path="url(#p06475955e3)" style="fill: #6a3d9a"/>
   </g>
   <g id="patch_33">
    <path d="M 161.391528 138.635526 
L 164.530287 138.635526 
L 164.530287 126.865181 
L 161.391528 126.865181 
z
" clip-path="url(#p06475955e3)" style="fill: #6a3d9a"/>
   </g>
   <g id="patch_34">
    <path d="M 42.511037 153.152286 
C 43.75965 153.152286 44.957291 152.656207 45.840193 151.773304 
C 46.723096 150.890401 47.219175 149.69276 47.219175 148.444148 
C 47.219175 147.195535 46.723096 145.997894 45.840193 145.114991 
C 44.957291 144.232088 43.75965 143.736009 42.511037 143.736009 
C 41.262424 143.736009 40.064783 144.232088 39.18188 145.114991 
C 38.298978 145.997894 37.802899 147.195535 37.802899 148.444148 
C 37.802899 149.69276 38.298978 150.890401 39.18188 151.773304 
C 40.064783 152.656207 41.262424 153.152286 42.511037 153.152286 
z
" clip-path="url(#p06475955e3)" style="fill: #6a3d9a"/>
   </g>
   <g id="patch_35">
    <path d="M 35.841174 154.721665 
L 49.180899 154.721665 
L 47.219175 166.492011 
L 37.802899 166.492011 
z
" clip-path="url(#p06475955e3)" style="fill: #6a3d9a"/>
   </g>
   <g id="patch_36">
    <path d="M 38.195243 177.870012 
L 41.334002 177.870012 
L 41.334002 166.099666 
L 38.195243 166.099666 
z
" clip-path="url(#p06475955e3)" style="fill: #6a3d9a"/>
   </g>
   <g id="patch_37">
    <path d="M 43.688071 177.870012 
L 46.82683 177.870012 
L 46.82683 166.099666 
L 43.688071 166.099666 
z
" clip-path="url(#p06475955e3)" style="fill: #6a3d9a"/>
   </g>
   <g id="patch_38">
    <path d="M 81.745522 153.152286 
C 82.994135 153.152286 84.191776 152.656207 85.074679 151.773304 
C 85.957581 150.890401 86.453661 149.69276 86.453661 148.444148 
C 86.453661 147.195535 85.957581 145.997894 85.074679 145.114991 
C 84.191776 144.232088 82.994135 143.736009 81.745522 143.736009 
C 80.496909 143.736009 79.299268 144.232088 78.416366 145.114991 
C 77.533463 145.997894 77.037384 147.195535 77.037384 148.444148 
C 77.037384 149.69276 77.533463 150.890401 78.416366 151.773304 
C 79.299268 152.656207 80.496909 153.152286 81.745522 153.152286 
z
" clip-path="url(#p06475955e3)" style="fill: #6a3d9a"/>
   </g>
   <g id="patch_39">
    <path d="M 75.07566 154.721665 
L 88.415385 154.721665 
L 86.453661 166.492011 
L 77.037384 166.492011 
z
" clip-path="url(#p06475955e3)" style="fill: #6a3d9a"/>
   </g>
   <g id="patch_40">
    <path d="M 77.429729 177.870012 
L 80.568488 177.870012 
L 80.568488 166.099666 
L 77.429729 166.099666 
z
" clip-path="url(#p06475955e3)" style="fill: #6a3d9a"/>
   </g>
   <g id="patch_41">
    <path d="M 82.922557 177.870012 
L 86.061316 177.870012 
L 86.061316 166.099666 
L 82.922557 166.099666 
z
" clip-path="url(#p06475955e3)" style="fill: #6a3d9a"/>
   </g>
   <g id="patch_42">
    <path d="M 120.980008 153.152286 
C 122.228621 153.152286 123.426262 152.656207 124.309164 151.773304 
C 125.192067 150.890401 125.688146 149.69276 125.688146 148.444148 
C 125.688146 147.195535 125.192067 145.997894 124.309164 145.114991 
C 123.426262 144.232088 122.228621 143.736009 120.980008 143.736009 
C 119.731395 143.736009 118.533754 144.232088 117.650851 145.114991 
C 116.767949 145.997894 116.271869 147.195535 116.271869 148.444148 
C 116.271869 149.69276 116.767949 150.890401 117.650851 151.773304 
C 118.533754 152.656207 119.731395 153.152286 120.980008 153.152286 
z
" clip-path="url(#p06475955e3)" style="fill: #6a3d9a"/>
   </g>
   <g id="patch_43">
    <path d="M 114.310145 154.721665 
L 127.64987 154.721665 
L 125.688146 166.492011 
L 116.271869 166.492011 
z
" clip-path="url(#p06475955e3)" style="fill: #6a3d9a"/>
   </g>
   <g id="patch_44">
    <path d="M 116.664214 177.870012 
L 119.802973 177.870012 
L 119.802973 166.099666 
L 116.664214 166.099666 
z
" clip-path="url(#p06475955e3)" style="fill: #6a3d9a"/>
   </g>
   <g id="patch_45">
    <path d="M 122.157042 177.870012 
L 125.295801 177.870012 
L 125.295801 166.099666 
L 122.157042 166.099666 
z
" clip-path="url(#p06475955e3)" style="fill: #6a3d9a"/>
   </g>
   <g id="patch_46">
    <path d="M 160.214493 153.152286 
C 161.463106 153.152286 162.660747 152.656207 163.54365 151.773304 
C 164.426552 150.890401 164.922631 149.69276 164.922631 148.444148 
C 164.922631 147.195535 164.426552 145.997894 163.54365 145.114991 
C 162.660747 144.232088 161.463106 143.736009 160.214493 143.736009 
C 158.96588 143.736009 157.768239 144.232088 156.885337 145.114991 
C 156.002434 145.997894 155.506355 147.195535 155.506355 148.444148 
C 155.506355 149.69276 156.002434 150.890401 156.885337 151.773304 
C 157.768239 152.656207 158.96588 153.152286 160.214493 153.152286 
z
" clip-path="url(#p06475955e3)" style="fill: #6a3d9a"/>
   </g>
   <g id="patch_47">
    <path d="M 153.544631 154.721665 
L 166.884356 154.721665 
L 164.922631 166.492011 
L 155.506355 166.492011 
z
" clip-path="url(#p06475955e3)" style="fill: #6a3d9a"/>
   </g>
   <g id="patch_48">
    <path d="M 155.8987 177.870012 
L 159.037459 177.870012 
L 159.037459 166.099666 
L 155.8987 166.099666 
z
" clip-path="url(#p06475955e3)" style="fill: #6a3d9a"/>
   </g>
   <g id="patch_49">
    <path d="M 161.391528 177.870012 
L 164.530287 177.870012 
L 164.530287 166.099666 
L 161.391528 166.099666 
z
" clip-path="url(#p06475955e3)" style="fill: #6a3d9a"/>
   </g>
   <g id="patch_50">
    <path d="M 42.511037 192.386771 
C 43.75965 192.386771 44.957291 191.890692 45.840193 191.007789 
C 46.723096 190.124887 47.219175 188.927246 47.219175 187.678633 
C 47.219175 186.43002 46.723096 185.232379 45.840193 184.349476 
C 44.957291 183.466574 43.75965 182.970495 42.511037 182.970495 
C 41.262424 182.970495 40.064783 183.466574 39.18188 184.349476 
C 38.298978 185.232379 37.802899 186.43002 37.802899 187.678633 
C 37.802899 188.927246 38.298978 190.124887 39.18188 191.007789 
C 40.064783 191.890692 41.262424 192.386771 42.511037 192.386771 
z
" clip-path="url(#p06475955e3)" style="fill: #6a3d9a"/>
   </g>
   <g id="patch_51">
    <path d="M 35.841174 193.956151 
L 49.180899 193.956151 
L 47.219175 205.726496 
L 37.802899 205.726496 
z
" clip-path="url(#p06475955e3)" style="fill: #6a3d9a"/>
   </g>
   <g id="patch_52">
    <path d="M 38.195243 217.104497 
L 41.334002 217.104497 
L 41.334002 205.334151 
L 38.195243 205.334151 
z
" clip-path="url(#p06475955e3)" style="fill: #6a3d9a"/>
   </g>
   <g id="patch_53">
    <path d="M 43.688071 217.104497 
L 46.82683 217.104497 
L 46.82683 205.334151 
L 43.688071 205.334151 
z
" clip-path="url(#p06475955e3)" style="fill: #6a3d9a"/>
   </g>
   <g id="patch_54">
    <path d="M 81.745522 192.386771 
C 82.994135 192.386771 84.191776 191.890692 85.074679 191.007789 
C 85.957581 190.124887 86.453661 188.927246 86.453661 187.678633 
C 86.453661 186.43002 85.957581 185.232379 85.074679 184.349476 
C 84.191776 183.466574 82.994135 182.970495 81.745522 182.970495 
C 80.496909 182.970495 79.299268 183.466574 78.416366 184.349476 
C 77.533463 185.232379 77.037384 186.43002 77.037384 187.678633 
C 77.037384 188.927246 77.533463 190.124887 78.416366 191.007789 
C 79.299268 191.890692 80.496909 192.386771 81.745522 192.386771 
z
" clip-path="url(#p06475955e3)" style="fill: #1f78b4"/>
   </g>
   <g id="patch_55">
    <path d="M 75.07566 193.956151 
L 88.415385 193.956151 
L 86.453661 205.726496 
L 77.037384 205.726496 
z
" clip-path="url(#p06475955e3)" style="fill: #1f78b4"/>
   </g>
   <g id="patch_56">
    <path d="M 77.429729 217.104497 
L 80.568488 217.104497 
L 80.568488 205.334151 
L 77.429729 205.334151 
z
" clip-path="url(#p06475955e3)" style="fill: #1f78b4"/>
   </g>
   <g id="patch_57">
    <path d="M 82.922557 217.104497 
L 86.061316 217.104497 
L 86.061316 205.334151 
L 82.922557 205.334151 
z
" clip-path="url(#p06475955e3)" style="fill: #1f78b4"/>
   </g>
   <g id="patch_58">
    <path d="M 120.980008 192.386771 
C 122.228621 192.386771 123.426262 191.890692 124.309164 191.007789 
C 125.192067 190.124887 125.688146 188.927246 125.688146 187.678633 
C 125.688146 186.43002 125.192067 185.232379 124.309164 184.349476 
C 123.426262 183.466574 122.228621 182.970495 120.980008 182.970495 
C 119.731395 182.970495 118.533754 183.466574 117.650851 184.349476 
C 116.767949 185.232379 116.271869 186.43002 116.271869 187.678633 
C 116.271869 188.927246 116.767949 190.124887 117.650851 191.007789 
C 118.533754 191.890692 119.731395 192.386771 120.980008 192.386771 
z
" clip-path="url(#p06475955e3)" style="fill: #1f78b4"/>
   </g>
   <g id="patch_59">
    <path d="M 114.310145 193.956151 
L 127.64987 193.956151 
L 125.688146 205.726496 
L 116.271869 205.726496 
z
" clip-path="url(#p06475955e3)" style="fill: #1f78b4"/>
   </g>
   <g id="patch_60">
    <path d="M 116.664214 217.104497 
L 119.802973 217.104497 
L 119.802973 205.334151 
L 116.664214 205.334151 
z
" clip-path="url(#p06475955e3)" style="fill: #1f78b4"/>
   </g>
   <g id="patch_61">
    <path d="M 122.157042 217.104497 
L 125.295801 217.104497 
L 125.295801 205.334151 
L 122.157042 205.334151 
z
" clip-path="url(#p06475955e3)" style="fill: #1f78b4"/>
   </g>
   <g id="patch_62">
    <path d="M 160.214493 192.386771 
C 161.463106 192.386771 162.660747 191.890692 163.54365 191.007789 
C 164.426552 190.124887 164.922631 188.927246 164.922631 187.678633 
C 164.922631 186.43002 164.426552 185.232379 163.54365 184.349476 
C 162.660747 183.466574 161.463106 182.970495 160.214493 182.970495 
C 158.96588 182.970495 157.768239 183.466574 156.885337 184.349476 
C 156.002434 185.232379 155.506355 186.43002 155.506355 187.678633 
C 155.506355 188.927246 156.002434 190.124887 156.885337 191.007789 
C 157.768239 191.890692 158.96588 192.386771 160.214493 192.386771 
z
" clip-path="url(#p06475955e3)" style="fill: #1f78b4"/>
   </g>
   <g id="patch_63">
    <path d="M 153.544631 193.956151 
L 166.884356 193.956151 
L 164.922631 205.726496 
L 155.506355 205.726496 
z
" clip-path="url(#p06475955e3)" style="fill: #1f78b4"/>
   </g>
   <g id="patch_64">
    <path d="M 155.8987 217.104497 
L 159.037459 217.104497 
L 159.037459 205.334151 
L 155.8987 205.334151 
z
" clip-path="url(#p06475955e3)" style="fill: #1f78b4"/>
   </g>
   <g id="patch_65">
    <path d="M 161.391528 217.104497 
L 164.530287 217.104497 
L 164.530287 205.334151 
L 161.391528 205.334151 
z
" clip-path="url(#p06475955e3)" style="fill: #1f78b4"/>
   </g>
   <g id="patch_66">
    <path d="M 42.511037 231.621257 
C 43.75965 231.621257 44.957291 231.125177 45.840193 230.242275 
C 46.723096 229.359372 47.219175 228.161731 47.219175 226.913118 
C 47.219175 225.664505 46.723096 224.466864 45.840193 223.583962 
C 44.957291 222.701059 43.75965 222.20498 42.511037 222.20498 
C 41.262424 222.20498 40.064783 222.701059 39.18188 223.583962 
C 38.298978 224.466864 37.802899 225.664505 37.802899 226.913118 
C 37.802899 228.161731 38.298978 229.359372 39.18188 230.242275 
C 40.064783 231.125177 41.262424 231.621257 42.511037 231.621257 
z
" clip-path="url(#p06475955e3)" style="fill: #1f78b4"/>
   </g>
   <g id="patch_67">
    <path d="M 35.841174 233.190636 
L 49.180899 233.190636 
L 47.219175 244.960982 
L 37.802899 244.960982 
z
" clip-path="url(#p06475955e3)" style="fill: #1f78b4"/>
   </g>
   <g id="patch_68">
    <path d="M 38.195243 256.338982 
L 41.334002 256.338982 
L 41.334002 244.568637 
L 38.195243 244.568637 
z
" clip-path="url(#p06475955e3)" style="fill: #1f78b4"/>
   </g>
   <g id="patch_69">
    <path d="M 43.688071 256.338982 
L 46.82683 256.338982 
L 46.82683 244.568637 
L 43.688071 244.568637 
z
" clip-path="url(#p06475955e3)" style="fill: #1f78b4"/>
   </g>
   <g id="patch_70">
    <path d="M 81.745522 231.621257 
C 82.994135 231.621257 84.191776 231.125177 85.074679 230.242275 
C 85.957581 229.359372 86.453661 228.161731 86.453661 226.913118 
C 86.453661 225.664505 85.957581 224.466864 85.074679 223.583962 
C 84.191776 222.701059 82.994135 222.20498 81.745522 222.20498 
C 80.496909 222.20498 79.299268 222.701059 78.416366 223.583962 
C 77.533463 224.466864 77.037384 225.664505 77.037384 226.913118 
C 77.037384 228.161731 77.533463 229.359372 78.416366 230.242275 
C 79.299268 231.125177 80.496909 231.621257 81.745522 231.621257 
z
" clip-path="url(#p06475955e3)" style="fill: #1f78b4"/>
   </g>
   <g id="patch_71">
    <path d="M 75.07566 233.190636 
L 88.415385 233.190636 
L 86.453661 244.960982 
L 77.037384 244.960982 
z
" clip-path="url(#p06475955e3)" style="fill: #1f78b4"/>
   </g>
   <g id="patch_72">
    <path d="M 77.429729 256.338982 
L 80.568488 256.338982 
L 80.568488 244.568637 
L 77.429729 244.568637 
z
" clip-path="url(#p06475955e3)" style="fill: #1f78b4"/>
   </g>
   <g id="patch_73">
    <path d="M 82.922557 256.338982 
L 86.061316 256.338982 
L 86.061316 244.568637 
L 82.922557 244.568637 
z
" clip-path="url(#p06475955e3)" style="fill: #1f78b4"/>
   </g>
   <g id="patch_74">
    <path d="M 120.980008 231.621257 
C 122.228621 231.621257 123.426262 231.125177 124.309164 230.242275 
C 125.192067 229.359372 125.688146 228.161731 125.688146 226.913118 
C 125.688146 225.664505 125.192067 224.466864 124.309164 223.583962 
C 123.426262 222.701059 122.228621 222.20498 120.980008 222.20498 
C 119.731395 222.20498 118.533754 222.701059 117.650851 223.583962 
C 116.767949 224.466864 116.271869 225.664505 116.271869 226.913118 
C 116.271869 228.161731 116.767949 229.359372 117.650851 230.242275 
C 118.533754 231.125177 119.731395 231.621257 120.980008 231.621257 
z
" clip-path="url(#p06475955e3)" style="fill: #1f78b4"/>
   </g>
   <g id="patch_75">
    <path d="M 114.310145 233.190636 
L 127.64987 233.190636 
L 125.688146 244.960982 
L 116.271869 244.960982 
z
" clip-path="url(#p06475955e3)" style="fill: #1f78b4"/>
   </g>
   <g id="patch_76">
    <path d="M 116.664214 256.338982 
L 119.802973 256.338982 
L 119.802973 244.568637 
L 116.664214 244.568637 
z
" clip-path="url(#p06475955e3)" style="fill: #1f78b4"/>
   </g>
   <g id="patch_77">
    <path d="M 122.157042 256.338982 
L 125.295801 256.338982 
L 125.295801 244.568637 
L 122.157042 244.568637 
z
" clip-path="url(#p06475955e3)" style="fill: #1f78b4"/>
   </g>
   <g id="patch_78">
    <path d="M 160.214493 231.621257 
C 161.463106 231.621257 162.660747 231.125177 163.54365 230.242275 
C 164.426552 229.359372 164.922631 228.161731 164.922631 226.913118 
C 164.922631 225.664505 164.426552 224.466864 163.54365 223.583962 
C 162.660747 222.701059 161.463106 222.20498 160.214493 222.20498 
C 158.96588 222.20498 157.768239 222.701059 156.885337 223.583962 
C 156.002434 224.466864 155.506355 225.664505 155.506355 226.913118 
C 155.506355 228.161731 156.002434 229.359372 156.885337 230.242275 
C 157.768239 231.125177 158.96588 231.621257 160.214493 231.621257 
z
" clip-path="url(#p06475955e3)" style="fill: #1f78b4"/>
   </g>
   <g id="patch_79">
    <path d="M 153.544631 233.190636 
L 166.884356 233.190636 
L 164.922631 244.960982 
L 155.506355 244.960982 
z
" clip-path="url(#p06475955e3)" style="fill: #1f78b4"/>
   </g>
   <g id="patch_80">
    <path d="M 155.8987 256.338982 
L 159.037459 256.338982 
L 159.037459 244.568637 
L 155.8987 244.568637 
z
" clip-path="url(#p06475955e3)" style="fill: #1f78b4"/>
   </g>
   <g id="patch_81">
    <path d="M 161.391528 256.338982 
L 164.530287 256.338982 
L 164.530287 244.568637 
L 161.391528 244.568637 
z
" clip-path="url(#p06475955e3)" style="fill: #1f78b4"/>
   </g>
   <g id="patch_82">
    <path d="M 270.071052 74.683315 
C 271.319665 74.683315 272.517306 74.187236 273.400209 73.304333 
C 274.283111 72.421431 274.779191 71.22379 274.779191 69.975177 
C 274.779191 68.726564 274.283111 67.528923 273.400209 66.64602 
C 272.517306 65.763118 271.319665 65.267038 270.071052 65.267038 
C 268.822439 65.267038 267.624798 65.763118 266.741896 66.64602 
C 265.858993 67.528923 265.362914 68.726564 265.362914 69.975177 
C 265.362914 71.22379 265.858993 72.421431 266.741896 73.304333 
C 267.624798 74.187236 268.822439 74.683315 270.071052 74.683315 
z
" clip-path="url(#p06475955e3)" style="fill: #6a3d9a"/>
   </g>
   <g id="patch_83">
    <path d="M 270.071052 75.468005 
L 261.439466 90.377109 
L 278.702639 90.377109 
z
" clip-path="url(#p06475955e3)" style="fill: #6a3d9a"/>
   </g>
   <g id="patch_84">
    <path d="M 266.147604 98.616351 
L 268.894018 98.616351 
L 268.894018 89.984764 
L 266.147604 89.984764 
z
" clip-path="url(#p06475955e3)" style="fill: #6a3d9a"/>
   </g>
   <g id="patch_85">
    <path d="M 271.248087 98.616351 
L 273.994501 98.616351 
L 273.994501 89.984764 
L 271.248087 89.984764 
z
" clip-path="url(#p06475955e3)" style="fill: #6a3d9a"/>
   </g>
   <g id="patch_86">
    <path d="M 309.305538 74.683315 
C 310.554151 74.683315 311.751792 74.187236 312.634694 73.304333 
C 313.517597 72.421431 314.013676 71.22379 314.013676 69.975177 
C 314.013676 68.726564 313.517597 67.528923 312.634694 66.64602 
C 311.751792 65.763118 310.554151 65.267038 309.305538 65.267038 
C 308.056925 65.267038 306.859284 65.763118 305.976381 66.64602 
C 305.093479 67.528923 304.597399 68.726564 304.597399 69.975177 
C 304.597399 71.22379 305.093479 72.421431 305.976381 73.304333 
C 306.859284 74.187236 308.056925 74.683315 309.305538 74.683315 
z
" clip-path="url(#p06475955e3)" style="fill: #6a3d9a"/>
   </g>
   <g id="patch_87">
    <path d="M 309.305538 75.468005 
L 300.673951 90.377109 
L 317.937125 90.377109 
z
" clip-path="url(#p06475955e3)" style="fill: #6a3d9a"/>
   </g>
   <g id="patch_88">
    <path d="M 305.382089 98.616351 
L 308.128503 98.616351 
L 308.128503 89.984764 
L 305.382089 89.984764 
z
" clip-path="url(#p06475955e3)" style="fill: #6a3d9a"/>
   </g>
   <g id="patch_89">
    <path d="M 310.482572 98.616351 
L 313.228986 98.616351 
L 313.228986 89.984764 
L 310.482572 89.984764 
z
" clip-path="url(#p06475955e3)" style="fill: #6a3d9a"/>
   </g>
   <g id="patch_90">
    <path d="M 348.540023 74.683315 
C 349.788636 74.683315 350.986277 74.187236 351.86918 73.304333 
C 352.752082 72.421431 353.248161 71.22379 353.248161 69.975177 
C 353.248161 68.726564 352.752082 67.528923 351.86918 66.64602 
C 350.986277 65.763118 349.788636 65.267038 348.540023 65.267038 
C 347.29141 65.267038 346.093769 65.763118 345.210867 66.64602 
C 344.327964 67.528923 343.831885 68.726564 343.831885 69.975177 
C 343.831885 71.22379 344.327964 72.421431 345.210867 73.304333 
C 346.093769 74.187236 347.29141 74.683315 348.540023 74.683315 
z
" clip-path="url(#p06475955e3)" style="fill: #6a3d9a"/>
   </g>
   <g id="patch_91">
    <path d="M 348.540023 75.468005 
L 339.908436 90.377109 
L 357.17161 90.377109 
z
" clip-path="url(#p06475955e3)" style="fill: #6a3d9a"/>
   </g>
   <g id="patch_92">
    <path d="M 344.616575 98.616351 
L 347.362989 98.616351 
L 347.362989 89.984764 
L 344.616575 89.984764 
z
" clip-path="url(#p06475955e3)" style="fill: #6a3d9a"/>
   </g>
   <g id="patch_93">
    <path d="M 349.717058 98.616351 
L 352.463472 98.616351 
L 352.463472 89.984764 
L 349.717058 89.984764 
z
" clip-path="url(#p06475955e3)" style="fill: #6a3d9a"/>
   </g>
   <g id="patch_94">
    <path d="M 387.774509 74.683315 
C 389.023121 74.683315 390.220762 74.187236 391.103665 73.304333 
C 391.986568 72.421431 392.482647 71.22379 392.482647 69.975177 
C 392.482647 68.726564 391.986568 67.528923 391.103665 66.64602 
C 390.220762 65.763118 389.023121 65.267038 387.774509 65.267038 
C 386.525896 65.267038 385.328255 65.763118 384.445352 66.64602 
C 383.562449 67.528923 383.06637 68.726564 383.06637 69.975177 
C 383.06637 71.22379 383.562449 72.421431 384.445352 73.304333 
C 385.328255 74.187236 386.525896 74.683315 387.774509 74.683315 
z
" clip-path="url(#p06475955e3)" style="fill: #6a3d9a"/>
   </g>
   <g id="patch_95">
    <path d="M 387.774509 75.468005 
L 379.142922 90.377109 
L 396.406095 90.377109 
z
" clip-path="url(#p06475955e3)" style="fill: #6a3d9a"/>
   </g>
   <g id="patch_96">
    <path d="M 383.85106 98.616351 
L 386.597474 98.616351 
L 386.597474 89.984764 
L 383.85106 89.984764 
z
" clip-path="url(#p06475955e3)" style="fill: #6a3d9a"/>
   </g>
   <g id="patch_97">
    <path d="M 388.951543 98.616351 
L 391.697957 98.616351 
L 391.697957 89.984764 
L 388.951543 89.984764 
z
" clip-path="url(#p06475955e3)" style="fill: #6a3d9a"/>
   </g>
   <g id="patch_98">
    <path d="M 270.071052 113.9178 
C 271.319665 113.9178 272.517306 113.421721 273.400209 112.538819 
C 274.283111 111.655916 274.779191 110.458275 274.779191 109.209662 
C 274.779191 107.961049 274.283111 106.763408 273.400209 105.880506 
C 272.517306 104.997603 271.319665 104.501524 270.071052 104.501524 
C 268.822439 104.501524 267.624798 104.997603 266.741896 105.880506 
C 265.858993 106.763408 265.362914 107.961049 265.362914 109.209662 
C 265.362914 110.458275 265.858993 111.655916 266.741896 112.538819 
C 267.624798 113.421721 268.822439 113.9178 270.071052 113.9178 
z
" clip-path="url(#p06475955e3)" style="fill: #6a3d9a"/>
   </g>
   <g id="patch_99">
    <path d="M 270.071052 114.70249 
L 261.439466 129.611595 
L 278.702639 129.611595 
z
" clip-path="url(#p06475955e3)" style="fill: #6a3d9a"/>
   </g>
   <g id="patch_100">
    <path d="M 266.147604 137.850836 
L 268.894018 137.850836 
L 268.894018 129.21925 
L 266.147604 129.21925 
z
" clip-path="url(#p06475955e3)" style="fill: #6a3d9a"/>
   </g>
   <g id="patch_101">
    <path d="M 271.248087 137.850836 
L 273.994501 137.850836 
L 273.994501 129.21925 
L 271.248087 129.21925 
z
" clip-path="url(#p06475955e3)" style="fill: #6a3d9a"/>
   </g>
   <g id="patch_102">
    <path d="M 309.305538 113.9178 
C 310.554151 113.9178 311.751792 113.421721 312.634694 112.538819 
C 313.517597 111.655916 314.013676 110.458275 314.013676 109.209662 
C 314.013676 107.961049 313.517597 106.763408 312.634694 105.880506 
C 311.751792 104.997603 310.554151 104.501524 309.305538 104.501524 
C 308.056925 104.501524 306.859284 104.997603 305.976381 105.880506 
C 305.093479 106.763408 304.597399 107.961049 304.597399 109.209662 
C 304.597399 110.458275 305.093479 111.655916 305.976381 112.538819 
C 306.859284 113.421721 308.056925 113.9178 309.305538 113.9178 
z
" clip-path="url(#p06475955e3)" style="fill: #6a3d9a"/>
   </g>
   <g id="patch_103">
    <path d="M 309.305538 114.70249 
L 300.673951 129.611595 
L 317.937125 129.611595 
z
" clip-path="url(#p06475955e3)" style="fill: #6a3d9a"/>
   </g>
   <g id="patch_104">
    <path d="M 305.382089 137.850836 
L 308.128503 137.850836 
L 308.128503 129.21925 
L 305.382089 129.21925 
z
" clip-path="url(#p06475955e3)" style="fill: #6a3d9a"/>
   </g>
   <g id="patch_105">
    <path d="M 310.482572 137.850836 
L 313.228986 137.850836 
L 313.228986 129.21925 
L 310.482572 129.21925 
z
" clip-path="url(#p06475955e3)" style="fill: #6a3d9a"/>
   </g>
   <g id="patch_106">
    <path d="M 348.540023 113.9178 
C 349.788636 113.9178 350.986277 113.421721 351.86918 112.538819 
C 352.752082 111.655916 353.248161 110.458275 353.248161 109.209662 
C 353.248161 107.961049 352.752082 106.763408 351.86918 105.880506 
C 350.986277 104.997603 349.788636 104.501524 348.540023 104.501524 
C 347.29141 104.501524 346.093769 104.997603 345.210867 105.880506 
C 344.327964 106.763408 343.831885 107.961049 343.831885 109.209662 
C 343.831885 110.458275 344.327964 111.655916 345.210867 112.538819 
C 346.093769 113.421721 347.29141 113.9178 348.540023 113.9178 
z
" clip-path="url(#p06475955e3)" style="fill: #6a3d9a"/>
   </g>
   <g id="patch_107">
    <path d="M 348.540023 114.70249 
L 339.908436 129.611595 
L 357.17161 129.611595 
z
" clip-path="url(#p06475955e3)" style="fill: #6a3d9a"/>
   </g>
   <g id="patch_108">
    <path d="M 344.616575 137.850836 
L 347.362989 137.850836 
L 347.362989 129.21925 
L 344.616575 129.21925 
z
" clip-path="url(#p06475955e3)" style="fill: #6a3d9a"/>
   </g>
   <g id="patch_109">
    <path d="M 349.717058 137.850836 
L 352.463472 137.850836 
L 352.463472 129.21925 
L 349.717058 129.21925 
z
" clip-path="url(#p06475955e3)" style="fill: #6a3d9a"/>
   </g>
   <g id="patch_110">
    <path d="M 387.774509 113.9178 
C 389.023121 113.9178 390.220762 113.421721 391.103665 112.538819 
C 391.986568 111.655916 392.482647 110.458275 392.482647 109.209662 
C 392.482647 107.961049 391.986568 106.763408 391.103665 105.880506 
C 390.220762 104.997603 389.023121 104.501524 387.774509 104.501524 
C 386.525896 104.501524 385.328255 104.997603 384.445352 105.880506 
C 383.562449 106.763408 383.06637 107.961049 383.06637 109.209662 
C 383.06637 110.458275 383.562449 111.655916 384.445352 112.538819 
C 385.328255 113.421721 386.525896 113.9178 387.774509 113.9178 
z
" clip-path="url(#p06475955e3)" style="fill: #6a3d9a"/>
   </g>
   <g id="patch_111">
    <path d="M 387.774509 114.70249 
L 379.142922 129.611595 
L 396.406095 129.611595 
z
" clip-path="url(#p06475955e3)" style="fill: #6a3d9a"/>
   </g>
   <g id="patch_112">
    <path d="M 383.85106 137.850836 
L 386.597474 137.850836 
L 386.597474 129.21925 
L 383.85106 129.21925 
z
" clip-path="url(#p06475955e3)" style="fill: #6a3d9a"/>
   </g>
   <g id="patch_113">
    <path d="M 388.951543 137.850836 
L 391.697957 137.850836 
L 391.697957 129.21925 
L 388.951543 129.21925 
z
" clip-path="url(#p06475955e3)" style="fill: #6a3d9a"/>
   </g>
   <g id="patch_114">
    <path d="M 270.071052 153.152286 
C 271.319665 153.152286 272.517306 152.656207 273.400209 151.773304 
C 274.283111 150.890401 274.779191 149.69276 274.779191 148.444148 
C 274.779191 147.195535 274.283111 145.997894 273.400209 145.114991 
C 272.517306 144.232088 271.319665 143.736009 270.071052 143.736009 
C 268.822439 143.736009 267.624798 144.232088 266.741896 145.114991 
C 265.858993 145.997894 265.362914 147.195535 265.362914 148.444148 
C 265.362914 149.69276 265.858993 150.890401 266.741896 151.773304 
C 267.624798 152.656207 268.822439 153.152286 270.071052 153.152286 
z
" clip-path="url(#p06475955e3)" style="fill: #6a3d9a"/>
   </g>
   <g id="patch_115">
    <path d="M 270.071052 153.936975 
L 261.439466 168.84608 
L 278.702639 168.84608 
z
" clip-path="url(#p06475955e3)" style="fill: #6a3d9a"/>
   </g>
   <g id="patch_116">
    <path d="M 266.147604 177.085322 
L 268.894018 177.085322 
L 268.894018 168.453735 
L 266.147604 168.453735 
z
" clip-path="url(#p06475955e3)" style="fill: #6a3d9a"/>
   </g>
   <g id="patch_117">
    <path d="M 271.248087 177.085322 
L 273.994501 177.085322 
L 273.994501 168.453735 
L 271.248087 168.453735 
z
" clip-path="url(#p06475955e3)" style="fill: #6a3d9a"/>
   </g>
   <g id="patch_118">
    <path d="M 309.305538 153.152286 
C 310.554151 153.152286 311.751792 152.656207 312.634694 151.773304 
C 313.517597 150.890401 314.013676 149.69276 314.013676 148.444148 
C 314.013676 147.195535 313.517597 145.997894 312.634694 145.114991 
C 311.751792 144.232088 310.554151 143.736009 309.305538 143.736009 
C 308.056925 143.736009 306.859284 144.232088 305.976381 145.114991 
C 305.093479 145.997894 304.597399 147.195535 304.597399 148.444148 
C 304.597399 149.69276 305.093479 150.890401 305.976381 151.773304 
C 306.859284 152.656207 308.056925 153.152286 309.305538 153.152286 
z
" clip-path="url(#p06475955e3)" style="fill: #6a3d9a"/>
   </g>
   <g id="patch_119">
    <path d="M 309.305538 153.936975 
L 300.673951 168.84608 
L 317.937125 168.84608 
z
" clip-path="url(#p06475955e3)" style="fill: #6a3d9a"/>
   </g>
   <g id="patch_120">
    <path d="M 305.382089 177.085322 
L 308.128503 177.085322 
L 308.128503 168.453735 
L 305.382089 168.453735 
z
" clip-path="url(#p06475955e3)" style="fill: #6a3d9a"/>
   </g>
   <g id="patch_121">
    <path d="M 310.482572 177.085322 
L 313.228986 177.085322 
L 313.228986 168.453735 
L 310.482572 168.453735 
z
" clip-path="url(#p06475955e3)" style="fill: #6a3d9a"/>
   </g>
   <g id="patch_122">
    <path d="M 348.540023 153.152286 
C 349.788636 153.152286 350.986277 152.656207 351.86918 151.773304 
C 352.752082 150.890401 353.248161 149.69276 353.248161 148.444148 
C 353.248161 147.195535 352.752082 145.997894 351.86918 145.114991 
C 350.986277 144.232088 349.788636 143.736009 348.540023 143.736009 
C 347.29141 143.736009 346.093769 144.232088 345.210867 145.114991 
C 344.327964 145.997894 343.831885 147.195535 343.831885 148.444148 
C 343.831885 149.69276 344.327964 150.890401 345.210867 151.773304 
C 346.093769 152.656207 347.29141 153.152286 348.540023 153.152286 
z
" clip-path="url(#p06475955e3)" style="fill: #6a3d9a"/>
   </g>
   <g id="patch_123">
    <path d="M 348.540023 153.936975 
L 339.908436 168.84608 
L 357.17161 168.84608 
z
" clip-path="url(#p06475955e3)" style="fill: #6a3d9a"/>
   </g>
   <g id="patch_124">
    <path d="M 344.616575 177.085322 
L 347.362989 177.085322 
L 347.362989 168.453735 
L 344.616575 168.453735 
z
" clip-path="url(#p06475955e3)" style="fill: #6a3d9a"/>
   </g>
   <g id="patch_125">
    <path d="M 349.717058 177.085322 
L 352.463472 177.085322 
L 352.463472 168.453735 
L 349.717058 168.453735 
z
" clip-path="url(#p06475955e3)" style="fill: #6a3d9a"/>
   </g>
   <g id="patch_126">
    <path d="M 387.774509 153.152286 
C 389.023121 153.152286 390.220762 152.656207 391.103665 151.773304 
C 391.986568 150.890401 392.482647 149.69276 392.482647 148.444148 
C 392.482647 147.195535 391.986568 145.997894 391.103665 145.114991 
C 390.220762 144.232088 389.023121 143.736009 387.774509 143.736009 
C 386.525896 143.736009 385.328255 144.232088 384.445352 145.114991 
C 383.562449 145.997894 383.06637 147.195535 383.06637 148.444148 
C 383.06637 149.69276 383.562449 150.890401 384.445352 151.773304 
C 385.328255 152.656207 386.525896 153.152286 387.774509 153.152286 
z
" clip-path="url(#p06475955e3)" style="fill: #6a3d9a"/>
   </g>
   <g id="patch_127">
    <path d="M 387.774509 153.936975 
L 379.142922 168.84608 
L 396.406095 168.84608 
z
" clip-path="url(#p06475955e3)" style="fill: #6a3d9a"/>
   </g>
   <g id="patch_128">
    <path d="M 383.85106 177.085322 
L 386.597474 177.085322 
L 386.597474 168.453735 
L 383.85106 168.453735 
z
" clip-path="url(#p06475955e3)" style="fill: #6a3d9a"/>
   </g>
   <g id="patch_129">
    <path d="M 388.951543 177.085322 
L 391.697957 177.085322 
L 391.697957 168.453735 
L 388.951543 168.453735 
z
" clip-path="url(#p06475955e3)" style="fill: #6a3d9a"/>
   </g>
   <g id="patch_130">
    <path d="M 270.071052 192.386771 
C 271.319665 192.386771 272.517306 191.890692 273.400209 191.007789 
C 274.283111 190.124887 274.779191 188.927246 274.779191 187.678633 
C 274.779191 186.43002 274.283111 185.232379 273.400209 184.349476 
C 272.517306 183.466574 271.319665 182.970495 270.071052 182.970495 
C 268.822439 182.970495 267.624798 183.466574 266.741896 184.349476 
C 265.858993 185.232379 265.362914 186.43002 265.362914 187.678633 
C 265.362914 188.927246 265.858993 190.124887 266.741896 191.007789 
C 267.624798 191.890692 268.822439 192.386771 270.071052 192.386771 
z
" clip-path="url(#p06475955e3)" style="fill: #6a3d9a"/>
   </g>
   <g id="patch_131">
    <path d="M 270.071052 193.171461 
L 261.439466 208.080565 
L 278.702639 208.080565 
z
" clip-path="url(#p06475955e3)" style="fill: #6a3d9a"/>
   </g>
   <g id="patch_132">
    <path d="M 266.147604 216.319807 
L 268.894018 216.319807 
L 268.894018 207.68822 
L 266.147604 207.68822 
z
" clip-path="url(#p06475955e3)" style="fill: #6a3d9a"/>
   </g>
   <g id="patch_133">
    <path d="M 271.248087 216.319807 
L 273.994501 216.319807 
L 273.994501 207.68822 
L 271.248087 207.68822 
z
" clip-path="url(#p06475955e3)" style="fill: #6a3d9a"/>
   </g>
   <g id="patch_134">
    <path d="M 309.305538 192.386771 
C 310.554151 192.386771 311.751792 191.890692 312.634694 191.007789 
C 313.517597 190.124887 314.013676 188.927246 314.013676 187.678633 
C 314.013676 186.43002 313.517597 185.232379 312.634694 184.349476 
C 311.751792 183.466574 310.554151 182.970495 309.305538 182.970495 
C 308.056925 182.970495 306.859284 183.466574 305.976381 184.349476 
C 305.093479 185.232379 304.597399 186.43002 304.597399 187.678633 
C 304.597399 188.927246 305.093479 190.124887 305.976381 191.007789 
C 306.859284 191.890692 308.056925 192.386771 309.305538 192.386771 
z
" clip-path="url(#p06475955e3)" style="fill: #1f78b4"/>
   </g>
   <g id="patch_135">
    <path d="M 309.305538 193.171461 
L 300.673951 208.080565 
L 317.937125 208.080565 
z
" clip-path="url(#p06475955e3)" style="fill: #1f78b4"/>
   </g>
   <g id="patch_136">
    <path d="M 305.382089 216.319807 
L 308.128503 216.319807 
L 308.128503 207.68822 
L 305.382089 207.68822 
z
" clip-path="url(#p06475955e3)" style="fill: #1f78b4"/>
   </g>
   <g id="patch_137">
    <path d="M 310.482572 216.319807 
L 313.228986 216.319807 
L 313.228986 207.68822 
L 310.482572 207.68822 
z
" clip-path="url(#p06475955e3)" style="fill: #1f78b4"/>
   </g>
   <g id="patch_138">
    <path d="M 348.540023 192.386771 
C 349.788636 192.386771 350.986277 191.890692 351.86918 191.007789 
C 352.752082 190.124887 353.248161 188.927246 353.248161 187.678633 
C 353.248161 186.43002 352.752082 185.232379 351.86918 184.349476 
C 350.986277 183.466574 349.788636 182.970495 348.540023 182.970495 
C 347.29141 182.970495 346.093769 183.466574 345.210867 184.349476 
C 344.327964 185.232379 343.831885 186.43002 343.831885 187.678633 
C 343.831885 188.927246 344.327964 190.124887 345.210867 191.007789 
C 346.093769 191.890692 347.29141 192.386771 348.540023 192.386771 
z
" clip-path="url(#p06475955e3)" style="fill: #1f78b4"/>
   </g>
   <g id="patch_139">
    <path d="M 348.540023 193.171461 
L 339.908436 208.080565 
L 357.17161 208.080565 
z
" clip-path="url(#p06475955e3)" style="fill: #1f78b4"/>
   </g>
   <g id="patch_140">
    <path d="M 344.616575 216.319807 
L 347.362989 216.319807 
L 347.362989 207.68822 
L 344.616575 207.68822 
z
" clip-path="url(#p06475955e3)" style="fill: #1f78b4"/>
   </g>
   <g id="patch_141">
    <path d="M 349.717058 216.319807 
L 352.463472 216.319807 
L 352.463472 207.68822 
L 349.717058 207.68822 
z
" clip-path="url(#p06475955e3)" style="fill: #1f78b4"/>
   </g>
   <g id="patch_142">
    <path d="M 387.774509 192.386771 
C 389.023121 192.386771 390.220762 191.890692 391.103665 191.007789 
C 391.986568 190.124887 392.482647 188.927246 392.482647 187.678633 
C 392.482647 186.43002 391.986568 185.232379 391.103665 184.349476 
C 390.220762 183.466574 389.023121 182.970495 387.774509 182.970495 
C 386.525896 182.970495 385.328255 183.466574 384.445352 184.349476 
C 383.562449 185.232379 383.06637 186.43002 383.06637 187.678633 
C 383.06637 188.927246 383.562449 190.124887 384.445352 191.007789 
C 385.328255 191.890692 386.525896 192.386771 387.774509 192.386771 
z
" clip-path="url(#p06475955e3)" style="fill: #1f78b4"/>
   </g>
   <g id="patch_143">
    <path d="M 387.774509 193.171461 
L 379.142922 208.080565 
L 396.406095 208.080565 
z
" clip-path="url(#p06475955e3)" style="fill: #1f78b4"/>
   </g>
   <g id="patch_144">
    <path d="M 383.85106 216.319807 
L 386.597474 216.319807 
L 386.597474 207.68822 
L 383.85106 207.68822 
z
" clip-path="url(#p06475955e3)" style="fill: #1f78b4"/>
   </g>
   <g id="patch_145">
    <path d="M 388.951543 216.319807 
L 391.697957 216.319807 
L 391.697957 207.68822 
L 388.951543 207.68822 
z
" clip-path="url(#p06475955e3)" style="fill: #1f78b4"/>
   </g>
   <g id="patch_146">
    <path d="M 270.071052 231.621257 
C 271.319665 231.621257 272.517306 231.125177 273.400209 230.242275 
C 274.283111 229.359372 274.779191 228.161731 274.779191 226.913118 
C 274.779191 225.664505 274.283111 224.466864 273.400209 223.583962 
C 272.517306 222.701059 271.319665 222.20498 270.071052 222.20498 
C 268.822439 222.20498 267.624798 222.701059 266.741896 223.583962 
C 265.858993 224.466864 265.362914 225.664505 265.362914 226.913118 
C 265.362914 228.161731 265.858993 229.359372 266.741896 230.242275 
C 267.624798 231.125177 268.822439 231.621257 270.071052 231.621257 
z
" clip-path="url(#p06475955e3)" style="fill: #1f78b4"/>
   </g>
   <g id="patch_147">
    <path d="M 270.071052 232.405946 
L 261.439466 247.315051 
L 278.702639 247.315051 
z
" clip-path="url(#p06475955e3)" style="fill: #1f78b4"/>
   </g>
   <g id="patch_148">
    <path d="M 266.147604 255.554293 
L 268.894018 255.554293 
L 268.894018 246.922706 
L 266.147604 246.922706 
z
" clip-path="url(#p06475955e3)" style="fill: #1f78b4"/>
   </g>
   <g id="patch_149">
    <path d="M 271.248087 255.554293 
L 273.994501 255.554293 
L 273.994501 246.922706 
L 271.248087 246.922706 
z
" clip-path="url(#p06475955e3)" style="fill: #1f78b4"/>
   </g>
   <g id="patch_150">
    <path d="M 309.305538 231.621257 
C 310.554151 231.621257 311.751792 231.125177 312.634694 230.242275 
C 313.517597 229.359372 314.013676 228.161731 314.013676 226.913118 
C 314.013676 225.664505 313.517597 224.466864 312.634694 223.583962 
C 311.751792 222.701059 310.554151 222.20498 309.305538 222.20498 
C 308.056925 222.20498 306.859284 222.701059 305.976381 223.583962 
C 305.093479 224.466864 304.597399 225.664505 304.597399 226.913118 
C 304.597399 228.161731 305.093479 229.359372 305.976381 230.242275 
C 306.859284 231.125177 308.056925 231.621257 309.305538 231.621257 
z
" clip-path="url(#p06475955e3)" style="fill: #1f78b4"/>
   </g>
   <g id="patch_151">
    <path d="M 309.305538 232.405946 
L 300.673951 247.315051 
L 317.937125 247.315051 
z
" clip-path="url(#p06475955e3)" style="fill: #1f78b4"/>
   </g>
   <g id="patch_152">
    <path d="M 305.382089 255.554293 
L 308.128503 255.554293 
L 308.128503 246.922706 
L 305.382089 246.922706 
z
" clip-path="url(#p06475955e3)" style="fill: #1f78b4"/>
   </g>
   <g id="patch_153">
    <path d="M 310.482572 255.554293 
L 313.228986 255.554293 
L 313.228986 246.922706 
L 310.482572 246.922706 
z
" clip-path="url(#p06475955e3)" style="fill: #1f78b4"/>
   </g>
   <g id="patch_154">
    <path d="M 348.540023 231.621257 
C 349.788636 231.621257 350.986277 231.125177 351.86918 230.242275 
C 352.752082 229.359372 353.248161 228.161731 353.248161 226.913118 
C 353.248161 225.664505 352.752082 224.466864 351.86918 223.583962 
C 350.986277 222.701059 349.788636 222.20498 348.540023 222.20498 
C 347.29141 222.20498 346.093769 222.701059 345.210867 223.583962 
C 344.327964 224.466864 343.831885 225.664505 343.831885 226.913118 
C 343.831885 228.161731 344.327964 229.359372 345.210867 230.242275 
C 346.093769 231.125177 347.29141 231.621257 348.540023 231.621257 
z
" clip-path="url(#p06475955e3)" style="fill: #1f78b4"/>
   </g>
   <g id="patch_155">
    <path d="M 348.540023 232.405946 
L 339.908436 247.315051 
L 357.17161 247.315051 
z
" clip-path="url(#p06475955e3)" style="fill: #1f78b4"/>
   </g>
   <g id="patch_156">
    <path d="M 344.616575 255.554293 
L 347.362989 255.554293 
L 347.362989 246.922706 
L 344.616575 246.922706 
z
" clip-path="url(#p06475955e3)" style="fill: #1f78b4"/>
   </g>
   <g id="patch_157">
    <path d="M 349.717058 255.554293 
L 352.463472 255.554293 
L 352.463472 246.922706 
L 349.717058 246.922706 
z
" clip-path="url(#p06475955e3)" style="fill: #1f78b4"/>
   </g>
   <g id="patch_158">
    <path d="M 387.774509 231.621257 
C 389.023121 231.621257 390.220762 231.125177 391.103665 230.242275 
C 391.986568 229.359372 392.482647 228.161731 392.482647 226.913118 
C 392.482647 225.664505 391.986568 224.466864 391.103665 223.583962 
C 390.220762 222.701059 389.023121 222.20498 387.774509 222.20498 
C 386.525896 222.20498 385.328255 222.701059 384.445352 223.583962 
C 383.562449 224.466864 383.06637 225.664505 383.06637 226.913118 
C 383.06637 228.161731 383.562449 229.359372 384.445352 230.242275 
C 385.328255 231.125177 386.525896 231.621257 387.774509 231.621257 
z
" clip-path="url(#p06475955e3)" style="fill: #1f78b4"/>
   </g>
   <g id="patch_159">
    <path d="M 387.774509 232.405946 
L 379.142922 247.315051 
L 396.406095 247.315051 
z
" clip-path="url(#p06475955e3)" style="fill: #1f78b4"/>
   </g>
   <g id="patch_160">
    <path d="M 383.85106 255.554293 
L 386.597474 255.554293 
L 386.597474 246.922706 
L 383.85106 246.922706 
z
" clip-path="url(#p06475955e3)" style="fill: #1f78b4"/>
   </g>
   <g id="patch_161">
    <path d="M 388.951543 255.554293 
L 391.697957 255.554293 
L 391.697957 246.922706 
L 388.951543 246.922706 
z
" clip-path="url(#p06475955e3)" style="fill: #1f78b4"/>
   </g>
   <g id="text_1">
    <!-- Group A -->
    <g style="fill: #333333" transform="translate(71.783703 19.770747) scale(0.13 -0.13)">
     <defs>
      <path id="DejaVuSans-Bold-2a" d="M 4781 347 
Q 4331 128 3847 18 
Q 3363 -91 2847 -91 
Q 1681 -91 1000 561 
Q 319 1213 319 2328 
Q 319 3456 1012 4103 
Q 1706 4750 2913 4750 
Q 3378 4750 3804 4662 
Q 4231 4575 4609 4403 
L 4609 3438 
Q 4219 3659 3833 3768 
Q 3447 3878 3059 3878 
Q 2341 3878 1952 3476 
Q 1563 3075 1563 2328 
Q 1563 1588 1938 1184 
Q 2313 781 3003 781 
Q 3191 781 3352 804 
Q 3513 828 3641 878 
L 3641 1784 
L 2906 1784 
L 2906 2591 
L 4781 2591 
L 4781 347 
z
" transform="scale(0.015625)"/>
      <path id="DejaVuSans-Bold-55" d="M 3138 2547 
Q 2991 2616 2845 2648 
Q 2700 2681 2553 2681 
Q 2122 2681 1889 2404 
Q 1656 2128 1656 1613 
L 1656 0 
L 538 0 
L 538 3500 
L 1656 3500 
L 1656 2925 
Q 1872 3269 2151 3426 
Q 2431 3584 2822 3584 
Q 2878 3584 2943 3579 
Q 3009 3575 3134 3559 
L 3138 2547 
z
" transform="scale(0.015625)"/>
      <path id="DejaVuSans-Bold-52" d="M 2203 2784 
Q 1831 2784 1636 2517 
Q 1441 2250 1441 1747 
Q 1441 1244 1636 976 
Q 1831 709 2203 709 
Q 2569 709 2762 976 
Q 2956 1244 2956 1747 
Q 2956 2250 2762 2517 
Q 2569 2784 2203 2784 
z
M 2203 3584 
Q 3106 3584 3614 3096 
Q 4122 2609 4122 1747 
Q 4122 884 3614 396 
Q 3106 -91 2203 -91 
Q 1297 -91 786 396 
Q 275 884 275 1747 
Q 275 2609 786 3096 
Q 1297 3584 2203 3584 
z
" transform="scale(0.015625)"/>
      <path id="DejaVuSans-Bold-58" d="M 500 1363 
L 500 3500 
L 1625 3500 
L 1625 3150 
Q 1625 2866 1622 2436 
Q 1619 2006 1619 1863 
Q 1619 1441 1641 1255 
Q 1663 1069 1716 984 
Q 1784 875 1895 815 
Q 2006 756 2150 756 
Q 2500 756 2700 1025 
Q 2900 1294 2900 1772 
L 2900 3500 
L 4019 3500 
L 4019 0 
L 2900 0 
L 2900 506 
Q 2647 200 2364 54 
Q 2081 -91 1741 -91 
Q 1134 -91 817 281 
Q 500 653 500 1363 
z
" transform="scale(0.015625)"/>
      <path id="DejaVuSans-Bold-53" d="M 1656 506 
L 1656 -1331 
L 538 -1331 
L 538 3500 
L 1656 3500 
L 1656 2988 
Q 1888 3294 2169 3439 
Q 2450 3584 2816 3584 
Q 3463 3584 3878 3070 
Q 4294 2556 4294 1747 
Q 4294 938 3878 423 
Q 3463 -91 2816 -91 
Q 2450 -91 2169 54 
Q 1888 200 1656 506 
z
M 2400 2772 
Q 2041 2772 1848 2508 
Q 1656 2244 1656 1747 
Q 1656 1250 1848 986 
Q 2041 722 2400 722 
Q 2759 722 2948 984 
Q 3138 1247 3138 1747 
Q 3138 2247 2948 2509 
Q 2759 2772 2400 2772 
z
" transform="scale(0.015625)"/>
      <path id="DejaVuSans-Bold-3" transform="scale(0.015625)"/>
      <path id="DejaVuSans-Bold-24" d="M 3419 850 
L 1538 850 
L 1241 0 
L 31 0 
L 1759 4666 
L 3194 4666 
L 4922 0 
L 3713 0 
L 3419 850 
z
M 1838 1716 
L 3116 1716 
L 2478 3572 
L 1838 1716 
z
" transform="scale(0.015625)"/>
     </defs>
     <use xlink:href="#DejaVuSans-Bold-2a"/>
     <use xlink:href="#DejaVuSans-Bold-55" transform="translate(82.078125 0)"/>
     <use xlink:href="#DejaVuSans-Bold-52" transform="translate(131.390625 0)"/>
     <use xlink:href="#DejaVuSans-Bold-58" transform="translate(200.09375 0)"/>
     <use xlink:href="#DejaVuSans-Bold-53" transform="translate(271.28125 0)"/>
     <use xlink:href="#DejaVuSans-Bold-3" transform="translate(342.859375 0)"/>
     <use xlink:href="#DejaVuSans-Bold-24" transform="translate(377.671875 0)"/>
    </g>
   </g>
   <g id="text_2">
    <!-- 65% trait 1 -->
    <g style="fill: #333333" transform="translate(72.066124 34.103403) scale(0.105 -0.105)">
     <defs>
      <path id="DejaVuSans-19" d="M 2113 2584 
Q 1688 2584 1439 2293 
Q 1191 2003 1191 1497 
Q 1191 994 1439 701 
Q 1688 409 2113 409 
Q 2538 409 2786 701 
Q 3034 994 3034 1497 
Q 3034 2003 2786 2293 
Q 2538 2584 2113 2584 
z
M 3366 4563 
L 3366 3988 
Q 3128 4100 2886 4159 
Q 2644 4219 2406 4219 
Q 1781 4219 1451 3797 
Q 1122 3375 1075 2522 
Q 1259 2794 1537 2939 
Q 1816 3084 2150 3084 
Q 2853 3084 3261 2657 
Q 3669 2231 3669 1497 
Q 3669 778 3244 343 
Q 2819 -91 2113 -91 
Q 1303 -91 875 529 
Q 447 1150 447 2328 
Q 447 3434 972 4092 
Q 1497 4750 2381 4750 
Q 2619 4750 2861 4703 
Q 3103 4656 3366 4563 
z
" transform="scale(0.015625)"/>
      <path id="DejaVuSans-18" d="M 691 4666 
L 3169 4666 
L 3169 4134 
L 1269 4134 
L 1269 2991 
Q 1406 3038 1543 3061 
Q 1681 3084 1819 3084 
Q 2600 3084 3056 2656 
Q 3513 2228 3513 1497 
Q 3513 744 3044 326 
Q 2575 -91 1722 -91 
Q 1428 -91 1123 -41 
Q 819 9 494 109 
L 494 744 
Q 775 591 1075 516 
Q 1375 441 1709 441 
Q 2250 441 2565 725 
Q 2881 1009 2881 1497 
Q 2881 1984 2565 2268 
Q 2250 2553 1709 2553 
Q 1456 2553 1204 2497 
Q 953 2441 691 2322 
L 691 4666 
z
" transform="scale(0.015625)"/>
      <path id="DejaVuSans-8" d="M 4653 2053 
Q 4381 2053 4226 1822 
Q 4072 1591 4072 1178 
Q 4072 772 4226 539 
Q 4381 306 4653 306 
Q 4919 306 5073 539 
Q 5228 772 5228 1178 
Q 5228 1588 5073 1820 
Q 4919 2053 4653 2053 
z
M 4653 2450 
Q 5147 2450 5437 2106 
Q 5728 1763 5728 1178 
Q 5728 594 5436 251 
Q 5144 -91 4653 -91 
Q 4153 -91 3862 251 
Q 3572 594 3572 1178 
Q 3572 1766 3864 2108 
Q 4156 2450 4653 2450 
z
M 1428 4353 
Q 1159 4353 1004 4120 
Q 850 3888 850 3481 
Q 850 3069 1003 2837 
Q 1156 2606 1428 2606 
Q 1700 2606 1854 2837 
Q 2009 3069 2009 3481 
Q 2009 3884 1853 4118 
Q 1697 4353 1428 4353 
z
M 4250 4750 
L 4750 4750 
L 1831 -91 
L 1331 -91 
L 4250 4750 
z
M 1428 4750 
Q 1922 4750 2215 4408 
Q 2509 4066 2509 3481 
Q 2509 2891 2217 2550 
Q 1925 2209 1428 2209 
Q 931 2209 642 2551 
Q 353 2894 353 3481 
Q 353 4063 643 4406 
Q 934 4750 1428 4750 
z
" transform="scale(0.015625)"/>
      <path id="DejaVuSans-3" transform="scale(0.015625)"/>
      <path id="DejaVuSans-57" d="M 1172 4494 
L 1172 3500 
L 2356 3500 
L 2356 3053 
L 1172 3053 
L 1172 1153 
Q 1172 725 1289 603 
Q 1406 481 1766 481 
L 2356 481 
L 2356 0 
L 1766 0 
Q 1100 0 847 248 
Q 594 497 594 1153 
L 594 3053 
L 172 3053 
L 172 3500 
L 594 3500 
L 594 4494 
L 1172 4494 
z
" transform="scale(0.015625)"/>
      <path id="DejaVuSans-55" d="M 2631 2963 
Q 2534 3019 2420 3045 
Q 2306 3072 2169 3072 
Q 1681 3072 1420 2755 
Q 1159 2438 1159 1844 
L 1159 0 
L 581 0 
L 581 3500 
L 1159 3500 
L 1159 2956 
Q 1341 3275 1631 3429 
Q 1922 3584 2338 3584 
Q 2397 3584 2469 3576 
Q 2541 3569 2628 3553 
L 2631 2963 
z
" transform="scale(0.015625)"/>
      <path id="DejaVuSans-44" d="M 2194 1759 
Q 1497 1759 1228 1600 
Q 959 1441 959 1056 
Q 959 750 1161 570 
Q 1363 391 1709 391 
Q 2188 391 2477 730 
Q 2766 1069 2766 1631 
L 2766 1759 
L 2194 1759 
z
M 3341 1997 
L 3341 0 
L 2766 0 
L 2766 531 
Q 2569 213 2275 61 
Q 1981 -91 1556 -91 
Q 1019 -91 701 211 
Q 384 513 384 1019 
Q 384 1609 779 1909 
Q 1175 2209 1959 2209 
L 2766 2209 
L 2766 2266 
Q 2766 2663 2505 2880 
Q 2244 3097 1772 3097 
Q 1472 3097 1187 3025 
Q 903 2953 641 2809 
L 641 3341 
Q 956 3463 1253 3523 
Q 1550 3584 1831 3584 
Q 2591 3584 2966 3190 
Q 3341 2797 3341 1997 
z
" transform="scale(0.015625)"/>
      <path id="DejaVuSans-4c" d="M 603 3500 
L 1178 3500 
L 1178 0 
L 603 0 
L 603 3500 
z
M 603 4863 
L 1178 4863 
L 1178 4134 
L 603 4134 
L 603 4863 
z
" transform="scale(0.015625)"/>
      <path id="DejaVuSans-14" d="M 794 531 
L 1825 531 
L 1825 4091 
L 703 3866 
L 703 4441 
L 1819 4666 
L 2450 4666 
L 2450 531 
L 3481 531 
L 3481 0 
L 794 0 
L 794 531 
z
" transform="scale(0.015625)"/>
     </defs>
     <use xlink:href="#DejaVuSans-19"/>
     <use xlink:href="#DejaVuSans-18" transform="translate(63.625 0)"/>
     <use xlink:href="#DejaVuSans-8" transform="translate(127.25 0)"/>
     <use xlink:href="#DejaVuSans-3" transform="translate(222.265625 0)"/>
     <use xlink:href="#DejaVuSans-57" transform="translate(254.046875 0)"/>
     <use xlink:href="#DejaVuSans-55" transform="translate(293.25 0)"/>
     <use xlink:href="#DejaVuSans-44" transform="translate(334.359375 0)"/>
     <use xlink:href="#DejaVuSans-4c" transform="translate(395.640625 0)"/>
     <use xlink:href="#DejaVuSans-57" transform="translate(423.421875 0)"/>
     <use xlink:href="#DejaVuSans-3" transform="translate(462.625 0)"/>
     <use xlink:href="#DejaVuSans-14" transform="translate(494.40625 0)"/>
    </g>
   </g>
   <g id="text_3">
    <!-- Group B -->
    <g style="fill: #333333" transform="translate(185.639882 19.770747) scale(0.13 -0.13)">
     <defs>
      <path id="DejaVuSans-Bold-25" d="M 2456 2859 
Q 2741 2859 2887 2984 
Q 3034 3109 3034 3353 
Q 3034 3594 2887 3720 
Q 2741 3847 2456 3847 
L 1791 3847 
L 1791 2859 
L 2456 2859 
z
M 2497 819 
Q 2859 819 3042 972 
Q 3225 1125 3225 1434 
Q 3225 1738 3044 1889 
Q 2863 2041 2497 2041 
L 1791 2041 
L 1791 819 
L 2497 819 
z
M 3616 2497 
Q 4003 2384 4215 2081 
Q 4428 1778 4428 1338 
Q 4428 663 3972 331 
Q 3516 0 2584 0 
L 588 0 
L 588 4666 
L 2394 4666 
Q 3366 4666 3802 4372 
Q 4238 4078 4238 3431 
Q 4238 3091 4078 2852 
Q 3919 2613 3616 2497 
z
" transform="scale(0.015625)"/>
     </defs>
     <use xlink:href="#DejaVuSans-Bold-2a"/>
     <use xlink:href="#DejaVuSans-Bold-55" transform="translate(82.078125 0)"/>
     <use xlink:href="#DejaVuSans-Bold-52" transform="translate(131.390625 0)"/>
     <use xlink:href="#DejaVuSans-Bold-58" transform="translate(200.09375 0)"/>
     <use xlink:href="#DejaVuSans-Bold-53" transform="translate(271.28125 0)"/>
     <use xlink:href="#DejaVuSans-Bold-3" transform="translate(342.859375 0)"/>
     <use xlink:href="#DejaVuSans-Bold-25" transform="translate(377.671875 0)"/>
    </g>
   </g>
   <g id="text_4">
    <!-- 65% trait 1 -->
    <g style="fill: #333333" transform="translate(185.846132 34.103403) scale(0.105 -0.105)">
     <use xlink:href="#DejaVuSans-19"/>
     <use xlink:href="#DejaVuSans-18" transform="translate(63.625 0)"/>
     <use xlink:href="#DejaVuSans-8" transform="translate(127.25 0)"/>
     <use xlink:href="#DejaVuSans-3" transform="translate(222.265625 0)"/>
     <use xlink:href="#DejaVuSans-57" transform="translate(254.046875 0)"/>
     <use xlink:href="#DejaVuSans-55" transform="translate(293.25 0)"/>
     <use xlink:href="#DejaVuSans-44" transform="translate(334.359375 0)"/>
     <use xlink:href="#DejaVuSans-4c" transform="translate(395.640625 0)"/>
     <use xlink:href="#DejaVuSans-57" transform="translate(423.421875 0)"/>
     <use xlink:href="#DejaVuSans-3" transform="translate(462.625 0)"/>
     <use xlink:href="#DejaVuSans-14" transform="translate(494.40625 0)"/>
    </g>
   </g>
   <g id="text_5">
    <!-- Man = group A, woman = group B.   Purple = trait 1, blue = trait 2. -->
    <g style="fill: #555555" transform="translate(71.796249 282.088014) scale(0.085 -0.085)">
     <defs>
      <path id="DejaVuSans-30" d="M 628 4666 
L 1569 4666 
L 2759 1491 
L 3956 4666 
L 4897 4666 
L 4897 0 
L 4281 0 
L 4281 4097 
L 3078 897 
L 2444 897 
L 1241 4097 
L 1241 0 
L 628 0 
L 628 4666 
z
" transform="scale(0.015625)"/>
      <path id="DejaVuSans-51" d="M 3513 2113 
L 3513 0 
L 2938 0 
L 2938 2094 
Q 2938 2591 2744 2837 
Q 2550 3084 2163 3084 
Q 1697 3084 1428 2787 
Q 1159 2491 1159 1978 
L 1159 0 
L 581 0 
L 581 3500 
L 1159 3500 
L 1159 2956 
Q 1366 3272 1645 3428 
Q 1925 3584 2291 3584 
Q 2894 3584 3203 3211 
Q 3513 2838 3513 2113 
z
" transform="scale(0.015625)"/>
      <path id="DejaVuSans-20" d="M 678 2906 
L 4684 2906 
L 4684 2381 
L 678 2381 
L 678 2906 
z
M 678 1631 
L 4684 1631 
L 4684 1100 
L 678 1100 
L 678 1631 
z
" transform="scale(0.015625)"/>
      <path id="DejaVuSans-4a" d="M 2906 1791 
Q 2906 2416 2648 2759 
Q 2391 3103 1925 3103 
Q 1463 3103 1205 2759 
Q 947 2416 947 1791 
Q 947 1169 1205 825 
Q 1463 481 1925 481 
Q 2391 481 2648 825 
Q 2906 1169 2906 1791 
z
M 3481 434 
Q 3481 -459 3084 -895 
Q 2688 -1331 1869 -1331 
Q 1566 -1331 1297 -1286 
Q 1028 -1241 775 -1147 
L 775 -588 
Q 1028 -725 1275 -790 
Q 1522 -856 1778 -856 
Q 2344 -856 2625 -561 
Q 2906 -266 2906 331 
L 2906 616 
Q 2728 306 2450 153 
Q 2172 0 1784 0 
Q 1141 0 747 490 
Q 353 981 353 1791 
Q 353 2603 747 3093 
Q 1141 3584 1784 3584 
Q 2172 3584 2450 3431 
Q 2728 3278 2906 2969 
L 2906 3500 
L 3481 3500 
L 3481 434 
z
" transform="scale(0.015625)"/>
      <path id="DejaVuSans-52" d="M 1959 3097 
Q 1497 3097 1228 2736 
Q 959 2375 959 1747 
Q 959 1119 1226 758 
Q 1494 397 1959 397 
Q 2419 397 2687 759 
Q 2956 1122 2956 1747 
Q 2956 2369 2687 2733 
Q 2419 3097 1959 3097 
z
M 1959 3584 
Q 2709 3584 3137 3096 
Q 3566 2609 3566 1747 
Q 3566 888 3137 398 
Q 2709 -91 1959 -91 
Q 1206 -91 779 398 
Q 353 888 353 1747 
Q 353 2609 779 3096 
Q 1206 3584 1959 3584 
z
" transform="scale(0.015625)"/>
      <path id="DejaVuSans-58" d="M 544 1381 
L 544 3500 
L 1119 3500 
L 1119 1403 
Q 1119 906 1312 657 
Q 1506 409 1894 409 
Q 2359 409 2629 706 
Q 2900 1003 2900 1516 
L 2900 3500 
L 3475 3500 
L 3475 0 
L 2900 0 
L 2900 538 
Q 2691 219 2414 64 
Q 2138 -91 1772 -91 
Q 1169 -91 856 284 
Q 544 659 544 1381 
z
M 1991 3584 
L 1991 3584 
z
" transform="scale(0.015625)"/>
      <path id="DejaVuSans-53" d="M 1159 525 
L 1159 -1331 
L 581 -1331 
L 581 3500 
L 1159 3500 
L 1159 2969 
Q 1341 3281 1617 3432 
Q 1894 3584 2278 3584 
Q 2916 3584 3314 3078 
Q 3713 2572 3713 1747 
Q 3713 922 3314 415 
Q 2916 -91 2278 -91 
Q 1894 -91 1617 61 
Q 1341 213 1159 525 
z
M 3116 1747 
Q 3116 2381 2855 2742 
Q 2594 3103 2138 3103 
Q 1681 3103 1420 2742 
Q 1159 2381 1159 1747 
Q 1159 1113 1420 752 
Q 1681 391 2138 391 
Q 2594 391 2855 752 
Q 3116 1113 3116 1747 
z
" transform="scale(0.015625)"/>
      <path id="DejaVuSans-24" d="M 2188 4044 
L 1331 1722 
L 3047 1722 
L 2188 4044 
z
M 1831 4666 
L 2547 4666 
L 4325 0 
L 3669 0 
L 3244 1197 
L 1141 1197 
L 716 0 
L 50 0 
L 1831 4666 
z
" transform="scale(0.015625)"/>
      <path id="DejaVuSans-f" d="M 750 794 
L 1409 794 
L 1409 256 
L 897 -744 
L 494 -744 
L 750 256 
L 750 794 
z
" transform="scale(0.015625)"/>
      <path id="DejaVuSans-5a" d="M 269 3500 
L 844 3500 
L 1563 769 
L 2278 3500 
L 2956 3500 
L 3675 769 
L 4391 3500 
L 4966 3500 
L 4050 0 
L 3372 0 
L 2619 2869 
L 1863 0 
L 1184 0 
L 269 3500 
z
" transform="scale(0.015625)"/>
      <path id="DejaVuSans-50" d="M 3328 2828 
Q 3544 3216 3844 3400 
Q 4144 3584 4550 3584 
Q 5097 3584 5394 3201 
Q 5691 2819 5691 2113 
L 5691 0 
L 5113 0 
L 5113 2094 
Q 5113 2597 4934 2840 
Q 4756 3084 4391 3084 
Q 3944 3084 3684 2787 
Q 3425 2491 3425 1978 
L 3425 0 
L 2847 0 
L 2847 2094 
Q 2847 2600 2669 2842 
Q 2491 3084 2119 3084 
Q 1678 3084 1418 2786 
Q 1159 2488 1159 1978 
L 1159 0 
L 581 0 
L 581 3500 
L 1159 3500 
L 1159 2956 
Q 1356 3278 1631 3431 
Q 1906 3584 2284 3584 
Q 2666 3584 2933 3390 
Q 3200 3197 3328 2828 
z
" transform="scale(0.015625)"/>
      <path id="DejaVuSans-25" d="M 1259 2228 
L 1259 519 
L 2272 519 
Q 2781 519 3026 730 
Q 3272 941 3272 1375 
Q 3272 1813 3026 2020 
Q 2781 2228 2272 2228 
L 1259 2228 
z
M 1259 4147 
L 1259 2741 
L 2194 2741 
Q 2656 2741 2882 2914 
Q 3109 3088 3109 3444 
Q 3109 3797 2882 3972 
Q 2656 4147 2194 4147 
L 1259 4147 
z
M 628 4666 
L 2241 4666 
Q 2963 4666 3353 4366 
Q 3744 4066 3744 3513 
Q 3744 3084 3544 2831 
Q 3344 2578 2956 2516 
Q 3422 2416 3680 2098 
Q 3938 1781 3938 1306 
Q 3938 681 3513 340 
Q 3088 0 2303 0 
L 628 0 
L 628 4666 
z
" transform="scale(0.015625)"/>
      <path id="DejaVuSans-11" d="M 684 794 
L 1344 794 
L 1344 0 
L 684 0 
L 684 794 
z
" transform="scale(0.015625)"/>
      <path id="DejaVuSans-33" d="M 1259 4147 
L 1259 2394 
L 2053 2394 
Q 2494 2394 2734 2622 
Q 2975 2850 2975 3272 
Q 2975 3691 2734 3919 
Q 2494 4147 2053 4147 
L 1259 4147 
z
M 628 4666 
L 2053 4666 
Q 2838 4666 3239 4311 
Q 3641 3956 3641 3272 
Q 3641 2581 3239 2228 
Q 2838 1875 2053 1875 
L 1259 1875 
L 1259 0 
L 628 0 
L 628 4666 
z
" transform="scale(0.015625)"/>
      <path id="DejaVuSans-4f" d="M 603 4863 
L 1178 4863 
L 1178 0 
L 603 0 
L 603 4863 
z
" transform="scale(0.015625)"/>
      <path id="DejaVuSans-48" d="M 3597 1894 
L 3597 1613 
L 953 1613 
Q 991 1019 1311 708 
Q 1631 397 2203 397 
Q 2534 397 2845 478 
Q 3156 559 3463 722 
L 3463 178 
Q 3153 47 2828 -22 
Q 2503 -91 2169 -91 
Q 1331 -91 842 396 
Q 353 884 353 1716 
Q 353 2575 817 3079 
Q 1281 3584 2069 3584 
Q 2775 3584 3186 3129 
Q 3597 2675 3597 1894 
z
M 3022 2063 
Q 3016 2534 2758 2815 
Q 2500 3097 2075 3097 
Q 1594 3097 1305 2825 
Q 1016 2553 972 2059 
L 3022 2063 
z
" transform="scale(0.015625)"/>
      <path id="DejaVuSans-45" d="M 3116 1747 
Q 3116 2381 2855 2742 
Q 2594 3103 2138 3103 
Q 1681 3103 1420 2742 
Q 1159 2381 1159 1747 
Q 1159 1113 1420 752 
Q 1681 391 2138 391 
Q 2594 391 2855 752 
Q 3116 1113 3116 1747 
z
M 1159 2969 
Q 1341 3281 1617 3432 
Q 1894 3584 2278 3584 
Q 2916 3584 3314 3078 
Q 3713 2572 3713 1747 
Q 3713 922 3314 415 
Q 2916 -91 2278 -91 
Q 1894 -91 1617 61 
Q 1341 213 1159 525 
L 1159 0 
L 581 0 
L 581 4863 
L 1159 4863 
L 1159 2969 
z
" transform="scale(0.015625)"/>
      <path id="DejaVuSans-15" d="M 1228 531 
L 3431 531 
L 3431 0 
L 469 0 
L 469 531 
Q 828 903 1448 1529 
Q 2069 2156 2228 2338 
Q 2531 2678 2651 2914 
Q 2772 3150 2772 3378 
Q 2772 3750 2511 3984 
Q 2250 4219 1831 4219 
Q 1534 4219 1204 4116 
Q 875 4013 500 3803 
L 500 4441 
Q 881 4594 1212 4672 
Q 1544 4750 1819 4750 
Q 2544 4750 2975 4387 
Q 3406 4025 3406 3419 
Q 3406 3131 3298 2873 
Q 3191 2616 2906 2266 
Q 2828 2175 2409 1742 
Q 1991 1309 1228 531 
z
" transform="scale(0.015625)"/>
     </defs>
     <use xlink:href="#DejaVuSans-30"/>
     <use xlink:href="#DejaVuSans-44" transform="translate(86.28125 0)"/>
     <use xlink:href="#DejaVuSans-51" transform="translate(147.5625 0)"/>
     <use xlink:href="#DejaVuSans-3" transform="translate(210.9375 0)"/>
     <use xlink:href="#DejaVuSans-20" transform="translate(242.71875 0)"/>
     <use xlink:href="#DejaVuSans-3" transform="translate(326.515625 0)"/>
     <use xlink:href="#DejaVuSans-4a" transform="translate(358.296875 0)"/>
     <use xlink:href="#DejaVuSans-55" transform="translate(421.78125 0)"/>
     <use xlink:href="#DejaVuSans-52" transform="translate(460.6875 0)"/>
     <use xlink:href="#DejaVuSans-58" transform="translate(521.875 0)"/>
     <use xlink:href="#DejaVuSans-53" transform="translate(585.25 0)"/>
     <use xlink:href="#DejaVuSans-3" transform="translate(648.734375 0)"/>
     <use xlink:href="#DejaVuSans-24" transform="translate(680.515625 0)"/>
     <use xlink:href="#DejaVuSans-f" transform="translate(748.921875 0)"/>
     <use xlink:href="#DejaVuSans-3" transform="translate(780.703125 0)"/>
     <use xlink:href="#DejaVuSans-5a" transform="translate(812.484375 0)"/>
     <use xlink:href="#DejaVuSans-52" transform="translate(894.265625 0)"/>
     <use xlink:href="#DejaVuSans-50" transform="translate(955.453125 0)"/>
     <use xlink:href="#DejaVuSans-44" transform="translate(1052.859375 0)"/>
     <use xlink:href="#DejaVuSans-51" transform="translate(1114.140625 0)"/>
     <use xlink:href="#DejaVuSans-3" transform="translate(1177.515625 0)"/>
     <use xlink:href="#DejaVuSans-20" transform="translate(1209.296875 0)"/>
     <use xlink:href="#DejaVuSans-3" transform="translate(1293.09375 0)"/>
     <use xlink:href="#DejaVuSans-4a" transform="translate(1324.875 0)"/>
     <use xlink:href="#DejaVuSans-55" transform="translate(1388.359375 0)"/>
     <use xlink:href="#DejaVuSans-52" transform="translate(1427.265625 0)"/>
     <use xlink:href="#DejaVuSans-58" transform="translate(1488.453125 0)"/>
     <use xlink:href="#DejaVuSans-53" transform="translate(1551.828125 0)"/>
     <use xlink:href="#DejaVuSans-3" transform="translate(1615.3125 0)"/>
     <use xlink:href="#DejaVuSans-25" transform="translate(1647.09375 0)"/>
     <use xlink:href="#DejaVuSans-11" transform="translate(1715.703125 0)"/>
     <use xlink:href="#DejaVuSans-3" transform="translate(1747.484375 0)"/>
     <use xlink:href="#DejaVuSans-3" transform="translate(1779.265625 0)"/>
     <use xlink:href="#DejaVuSans-3" transform="translate(1811.046875 0)"/>
     <use xlink:href="#DejaVuSans-33" transform="translate(1842.828125 0)"/>
     <use xlink:href="#DejaVuSans-58" transform="translate(1901.375 0)"/>
     <use xlink:href="#DejaVuSans-55" transform="translate(1964.75 0)"/>
     <use xlink:href="#DejaVuSans-53" transform="translate(2005.859375 0)"/>
     <use xlink:href="#DejaVuSans-4f" transform="translate(2069.34375 0)"/>
     <use xlink:href="#DejaVuSans-48" transform="translate(2097.125 0)"/>
     <use xlink:href="#DejaVuSans-3" transform="translate(2158.65625 0)"/>
     <use xlink:href="#DejaVuSans-20" transform="translate(2190.4375 0)"/>
     <use xlink:href="#DejaVuSans-3" transform="translate(2274.234375 0)"/>
     <use xlink:href="#DejaVuSans-57" transform="translate(2306.015625 0)"/>
     <use xlink:href="#DejaVuSans-55" transform="translate(2345.21875 0)"/>
     <use xlink:href="#DejaVuSans-44" transform="translate(2386.328125 0)"/>
     <use xlink:href="#DejaVuSans-4c" transform="translate(2447.609375 0)"/>
     <use xlink:href="#DejaVuSans-57" transform="translate(2475.390625 0)"/>
     <use xlink:href="#DejaVuSans-3" transform="translate(2514.59375 0)"/>
     <use xlink:href="#DejaVuSans-14" transform="translate(2546.375 0)"/>
     <use xlink:href="#DejaVuSans-f" transform="translate(2610 0)"/>
     <use xlink:href="#DejaVuSans-3" transform="translate(2641.78125 0)"/>
     <use xlink:href="#DejaVuSans-45" transform="translate(2673.5625 0)"/>
     <use xlink:href="#DejaVuSans-4f" transform="translate(2737.046875 0)"/>
     <use xlink:href="#DejaVuSans-58" transform="translate(2764.828125 0)"/>
     <use xlink:href="#DejaVuSans-48" transform="translate(2828.203125 0)"/>
     <use xlink:href="#DejaVuSans-3" transform="translate(2889.734375 0)"/>
     <use xlink:href="#DejaVuSans-20" transform="translate(2921.515625 0)"/>
     <use xlink:href="#DejaVuSans-3" transform="translate(3005.3125 0)"/>
     <use xlink:href="#DejaVuSans-57" transform="translate(3037.09375 0)"/>
     <use xlink:href="#DejaVuSans-55" transform="translate(3076.296875 0)"/>
     <use xlink:href="#DejaVuSans-44" transform="translate(3117.40625 0)"/>
     <use xlink:href="#DejaVuSans-4c" transform="translate(3178.6875 0)"/>
     <use xlink:href="#DejaVuSans-57" transform="translate(3206.46875 0)"/>
     <use xlink:href="#DejaVuSans-3" transform="translate(3245.671875 0)"/>
     <use xlink:href="#DejaVuSans-15" transform="translate(3277.453125 0)"/>
     <use xlink:href="#DejaVuSans-11" transform="translate(3341.078125 0)"/>
    </g>
   </g>
  </g>
 </g>
 <defs>
  <clipPath id="p06475955e3">
   <rect x="7.2" y="7.2" width="415.885545" height="286.411744"/>
  </clipPath>
 </defs>
</svg>
