<?xml version="1.0" encoding="utf-8" standalone="no"?>
<!DOCTYPE svg PUBLIC "-//W3C//DTD SVG 1.1//EN"
  "http://www.w3.org/Graphics/SVG/1.1/DTD/svg11.dtd">
<svg xmlns:xlink="http://www.w3.org/1999/xlink" width="430.285545pt" height="300.811744pt" viewBox="0 0 430.285545 300.811744" xmlns="http://www.w3.org/2000/svg" version="1.1">
 <metadata>
  <rdf:RDF xmlns:dc="http://purl.org/dc/elements/1.1/" xmlns:cc="http://creativecommons.org/ns#" xmlns:rdf="http://www.w3.org/1999/02/22-rdf-syntax-ns#">
   <cc:Work>
    <dc:type rdf:resource="http://purl.org/dc/dcmitype/StillImage"/>
    <dc:date>2026-06-12T09:19:38.776397</dc:date>
    <dc:format>image/svg+xml</dc:format>
    <dc:creator>
     <cc:Agent>
      <dc:title>Matplotlib v3.11.0, https://matplotlib.org/</dc:title>
     </cc:Agent>
    </dc:creator>
   </cc:Work>
  </rdf:RDF>
 </metadata>
 <defs>
  <style type="text/css">*{stroke-linejoin: round; stroke-linecap: butt}</style>
 </defs>
 <g id="figure_1">
  <g id="patch_1">
   <path d="M 0 300.811744 
L 430.285545 300.811744 
L 430.285545 0 
L 0 0 
z
" style="fill: #ffffff"/>
  </g>
  <g id="axes_1">
   <g id="line2d_1">
    <path d="M 215.142773 266.147604 
L 215.142773 54.281383 
" clip-path="url(#p065e1033a8)" style="fill: none; stroke: #bbbbbb; stroke-linecap: square"/>
   </g>
   <g id="patch_2">
    <path d="M 42.511037 69.190487 
L 29.956002 92.731178 
L 55.066072 92.731178 
z
" clip-path="url(#p065e1033a8)" style="fill: #33a02c"/>
   </g>
   <g id="patch_3">
    <path d="M 81.745522 69.190487 
L 69.190487 92.731178 
L 94.300558 92.731178 
z
" clip-path="url(#p065e1033a8)" style="fill: #33a02c"/>
   </g>
   <g id="patch_4">
    <path d="M 120.980008 69.190487 
L 108.424972 92.731178 
L 133.535043 92.731178 
z
" clip-path="url(#p065e1033a8)" style="fill: #33a02c"/>
   </g>
   <g id="patch_5">
    <path d="M 160.214493 69.190487 
L 147.659458 92.731178 
L 172.769528 92.731178 
z
" clip-path="url(#p065e1033a8)" style="fill: #33a02c"/>
   </g>
   <g id="patch_6">
    <path d="M 42.511037 108.424972 
L 29.956002 131.965664 
L 55.066072 131.965664 
z
" clip-path="url(#p065e1033a8)" style="fill: #33a02c"/>
   </g>
   <g id="patch_7">
    <path d="M 81.745522 108.424972 
L 69.190487 131.965664 
L 94.300558 131.965664 
z
" clip-path="url(#p065e1033a8)" style="fill: #33a02c"/>
   </g>
   <g id="patch_8">
    <path d="M 120.980008 108.424972 
L 108.424972 131.965664 
L 133.535043 131.965664 
z
" clip-path="url(#p065e1033a8)" style="fill: #33a02c"/>
   </g>
   <g id="patch_9">
    <path d="M 160.214493 108.424972 
L 147.659458 131.965664 
L 172.769528 131.965664 
z
" clip-path="url(#p065e1033a8)" style="fill: #33a02c"/>
   </g>
   <g id="patch_10">
    <path d="M 42.511037 147.659458 
L 29.956002 171.200149 
L 55.066072 171.200149 
z
" clip-path="url(#p065e1033a8)" style="fill: #33a02c"/>
   </g>
   <g id="patch_11">
    <path d="M 81.745522 147.659458 
L 69.190487 171.200149 
L 94.300558 171.200149 
z
" clip-path="url(#p065e1033a8)" style="fill: #33a02c"/>
   </g>
   <g id="patch_12">
    <path d="M 120.980008 147.659458 
L 108.424972 171.200149 
L 133.535043 171.200149 
z
" clip-path="url(#p065e1033a8)" style="fill: #33a02c"/>
   </g>
   <g id="patch_13">
    <path d="M 160.214493 147.659458 
L 147.659458 171.200149 
L 172.769528 171.200149 
z
" clip-path="url(#p065e1033a8)" style="fill: #33a02c"/>
   </g>
   <g id="patch_14">
    <path d="M 42.511037 186.893943 
L 29.956002 210.434634 
L 55.066072 210.434634 
z
" clip-path="url(#p065e1033a8)" style="fill: #33a02c"/>
   </g>
   <g id="patch_15">
    <path d="M 81.745522 186.893943 
L 69.190487 210.434634 
L 94.300558 210.434634 
z
" clip-path="url(#p065e1033a8)" style="fill: #1f78b4"/>
   </g>
   <g id="patch_16">
    <path d="M 120.980008 186.893943 
L 108.424972 210.434634 
L 133.535043 210.434634 
z
" clip-path="url(#p065e1033a8)" style="fill: #1f78b4"/>
   </g>
   <g id="patch_17">
    <path d="M 160.214493 186.893943 
L 147.659458 210.434634 
L 172.769528 210.434634 
z
" clip-path="url(#p065e1033a8)" style="fill: #1f78b4"/>
   </g>
   <g id="patch_18">
    <path d="M 42.511037 226.128429 
L 29.956002 249.66912 
L 55.066072 249.66912 
z
" clip-path="url(#p065e1033a8)" style="fill: #1f78b4"/>
   </g>
   <g id="patch_19">
    <path d="M 81.745522 226.128429 
L 69.190487 249.66912 
L 94.300558 249.66912 
z
" clip-path="url(#p065e1033a8)" style="fill: #1f78b4"/>
   </g>
   <g id="patch_20">
    <path d="M 120.980008 226.128429 
L 108.424972 249.66912 
L 133.535043 249.66912 
z
" clip-path="url(#p065e1033a8)" style="fill: #1f78b4"/>
   </g>
   <g id="patch_21">
    <path d="M 160.214493 226.128429 
L 147.659458 249.66912 
L 172.769528 249.66912 
z
" clip-path="url(#p065e1033a8)" style="fill: #1f78b4"/>
   </g>
   <g id="patch_22">
    <path d="M 270.071052 93.515868 
C 273.192584 93.515868 276.186687 92.27567 278.393944 90.068414 
C 280.6012 87.861157 281.841398 84.867054 281.841398 81.745522 
C 281.841398 78.62399 280.6012 75.629888 278.393944 73.422631 
C 276.186687 71.215375 273.192584 69.975177 270.071052 69.975177 
C 266.94952 69.975177 263.955418 71.215375 261.748161 73.422631 
C 259.540905 75.629888 258.300707 78.62399 258.300707 81.745522 
C 258.300707 84.867054 259.540905 87.861157 261.748161 90.068414 
C 263.955418 92.27567 266.94952 93.515868 270.071052 93.515868 
z
" clip-path="url(#p065e1033a8)" style="fill: #33a02c"/>
   </g>
   <g id="patch_23">
    <path d="M 309.305538 93.515868 
C 312.42707 93.515868 315.421172 92.27567 317.628429 90.068414 
C 319.835685 87.861157 321.075883 84.867054 321.075883 81.745522 
C 321.075883 78.62399 319.835685 75.629888 317.628429 73.422631 
C 315.421172 71.215375 312.42707 69.975177 309.305538 69.975177 
C 306.184006 69.975177 303.189903 71.215375 300.982647 73.422631 
C 298.77539 75.629888 297.535192 78.62399 297.535192 81.745522 
C 297.535192 84.867054 298.77539 87.861157 300.982647 90.068414 
C 303.189903 92.27567 306.184006 93.515868 309.305538 93.515868 
z
" clip-path="url(#p065e1033a8)" style="fill: #33a02c"/>
   </g>
   <g id="patch_24">
    <path d="M 348.540023 93.515868 
C 351.661555 93.515868 354.655658 92.27567 356.862914 90.068414 
C 359.070171 87.861157 360.310369 84.867054 360.310369 81.745522 
C 360.310369 78.62399 359.070171 75.629888 356.862914 73.422631 
C 354.655658 71.215375 351.661555 69.975177 348.540023 69.975177 
C 345.418491 69.975177 342.424388 71.215375 340.217132 73.422631 
C 338.009875 75.629888 336.769678 78.62399 336.769678 81.745522 
C 336.769678 84.867054 338.009875 87.861157 340.217132 90.068414 
C 342.424388 92.27567 345.418491 93.515868 348.540023 93.515868 
z
" clip-path="url(#p065e1033a8)" style="fill: #33a02c"/>
   </g>
   <g id="patch_25">
    <path d="M 387.774509 93.515868 
C 390.896041 93.515868 393.890143 92.27567 396.0974 90.068414 
C 398.304656 87.861157 399.544854 84.867054 399.544854 81.745522 
C 399.544854 78.62399 398.304656 75.629888 396.0974 73.422631 
C 393.890143 71.215375 390.896041 69.975177 387.774509 69.975177 
C 384.652976 69.975177 381.658874 71.215375 379.451617 73.422631 
C 377.244361 75.629888 376.004163 78.62399 376.004163 81.745522 
C 376.004163 84.867054 377.244361 87.861157 379.451617 90.068414 
C 381.658874 92.27567 384.652976 93.515868 387.774509 93.515868 
z
" clip-path="url(#p065e1033a8)" style="fill: #33a02c"/>
   </g>
   <g id="patch_26">
    <path d="M 270.071052 132.750353 
C 273.192584 132.750353 276.186687 131.510155 278.393944 129.302899 
C 280.6012 127.095642 281.841398 124.10154 281.841398 120.980008 
C 281.841398 117.858476 280.6012 114.864373 278.393944 112.657117 
C 276.186687 110.44986 273.192584 109.209662 270.071052 109.209662 
C 266.94952 109.209662 263.955418 110.44986 261.748161 112.657117 
C 259.540905 114.864373 258.300707 117.858476 258.300707 120.980008 
C 258.300707 124.10154 259.540905 127.095642 261.748161 129.302899 
C 263.955418 131.510155 266.94952 132.750353 270.071052 132.750353 
z
" clip-path="url(#p065e1033a8)" style="fill: #33a02c"/>
   </g>
   <g id="patch_27">
    <path d="M 309.305538 132.750353 
C 312.42707 132.750353 315.421172 131.510155 317.628429 129.302899 
C 319.835685 127.095642 321.075883 124.10154 321.075883 120.980008 
C 321.075883 117.858476 319.835685 114.864373 317.628429 112.657117 
C 315.421172 110.44986 312.42707 109.209662 309.305538 109.209662 
C 306.184006 109.209662 303.189903 110.44986 300.982647 112.657117 
C 298.77539 114.864373 297.535192 117.858476 297.535192 120.980008 
C 297.535192 124.10154 298.77539 127.095642 300.982647 129.302899 
C 303.189903 131.510155 306.184006 132.750353 309.305538 132.750353 
z
" clip-path="url(#p065e1033a8)" style="fill: #33a02c"/>
   </g>
   <g id="patch_28">
    <path d="M 348.540023 132.750353 
C 351.661555 132.750353 354.655658 131.510155 356.862914 129.302899 
C 359.070171 127.095642 360.310369 124.10154 360.310369 120.980008 
C 360.310369 117.858476 359.070171 114.864373 356.862914 112.657117 
C 354.655658 110.44986 351.661555 109.209662 348.540023 109.209662 
C 345.418491 109.209662 342.424388 110.44986 340.217132 112.657117 
C 338.009875 114.864373 336.769678 117.858476 336.769678 120.980008 
C 336.769678 124.10154 338.009875 127.095642 340.217132 129.302899 
C 342.424388 131.510155 345.418491 132.750353 348.540023 132.750353 
z
" clip-path="url(#p065e1033a8)" style="fill: #33a02c"/>
   </g>
   <g id="patch_29">
    <path d="M 387.774509 132.750353 
C 390.896041 132.750353 393.890143 131.510155 396.0974 129.302899 
C 398.304656 127.095642 399.544854 124.10154 399.544854 120.980008 
C 399.544854 117.858476 398.304656 114.864373 396.0974 112.657117 
C 393.890143 110.44986 390.896041 109.209662 387.774509 109.209662 
C 384.652976 109.209662 381.658874 110.44986 379.451617 112.657117 
C 377.244361 114.864373 376.004163 117.858476 376.004163 120.980008 
C 376.004163 124.10154 377.244361 127.095642 379.451617 129.302899 
C 381.658874 131.510155 384.652976 132.750353 387.774509 132.750353 
z
" clip-path="url(#p065e1033a8)" style="fill: #33a02c"/>
   </g>
   <g id="patch_30">
    <path d="M 270.071052 171.984839 
C 273.192584 171.984839 276.186687 170.744641 278.393944 168.537384 
C 280.6012 166.330128 281.841398 163.336025 281.841398 160.214493 
C 281.841398 157.092961 280.6012 154.098858 278.393944 151.891602 
C 276.186687 149.684345 273.192584 148.444148 270.071052 148.444148 
C 266.94952 148.444148 263.955418 149.684345 261.748161 151.891602 
C 259.540905 154.098858 258.300707 157.092961 258.300707 160.214493 
C 258.300707 163.336025 259.540905 166.330128 261.748161 168.537384 
C 263.955418 170.744641 266.94952 171.984839 270.071052 171.984839 
z
" clip-path="url(#p065e1033a8)" style="fill: #33a02c"/>
   </g>
   <g id="patch_31">
    <path d="M 309.305538 171.984839 
C 312.42707 171.984839 315.421172 170.744641 317.628429 168.537384 
C 319.835685 166.330128 321.075883 163.336025 321.075883 160.214493 
C 321.075883 157.092961 319.835685 154.098858 317.628429 151.891602 
C 315.421172 149.684345 312.42707 148.444148 309.305538 148.444148 
C 306.184006 148.444148 303.189903 149.684345 300.982647 151.891602 
C 298.77539 154.098858 297.535192 157.092961 297.535192 160.214493 
C 297.535192 163.336025 298.77539 166.330128 300.982647 168.537384 
C 303.189903 170.744641 306.184006 171.984839 309.305538 171.984839 
z
" clip-path="url(#p065e1033a8)" style="fill: #33a02c"/>
   </g>
   <g id="patch_32">
    <path d="M 348.540023 171.984839 
C 351.661555 171.984839 354.655658 170.744641 356.862914 168.537384 
C 359.070171 166.330128 360.310369 163.336025 360.310369 160.214493 
C 360.310369 157.092961 359.070171 154.098858 356.862914 151.891602 
C 354.655658 149.684345 351.661555 148.444148 348.540023 148.444148 
C 345.418491 148.444148 342.424388 149.684345 340.217132 151.891602 
C 338.009875 154.098858 336.769678 157.092961 336.769678 160.214493 
C 336.769678 163.336025 338.009875 166.330128 340.217132 168.537384 
C 342.424388 170.744641 345.418491 171.984839 348.540023 171.984839 
z
" clip-path="url(#p065e1033a8)" style="fill: #33a02c"/>
   </g>
   <g id="patch_33">
    <path d="M 387.774509 171.984839 
C 390.896041 171.984839 393.890143 170.744641 396.0974 168.537384 
C 398.304656 166.330128 399.544854 163.336025 399.544854 160.214493 
C 399.544854 157.092961 398.304656 154.098858 396.0974 151.891602 
C 393.890143 149.684345 390.896041 148.444148 387.774509 148.444148 
C 384.652976 148.444148 381.658874 149.684345 379.451617 151.891602 
C 377.244361 154.098858 376.004163 157.092961 376.004163 160.214493 
C 376.004163 163.336025 377.244361 166.330128 379.451617 168.537384 
C 381.658874 170.744641 384.652976 171.984839 387.774509 171.984839 
z
" clip-path="url(#p065e1033a8)" style="fill: #33a02c"/>
   </g>
   <g id="patch_34">
    <path d="M 270.071052 211.219324 
C 273.192584 211.219324 276.186687 209.979126 278.393944 207.77187 
C 280.6012 205.564613 281.841398 202.570511 281.841398 199.448979 
C 281.841398 196.327446 280.6012 193.333344 278.393944 191.126087 
C 276.186687 188.918831 273.192584 187.678633 270.071052 187.678633 
C 266.94952 187.678633 263.955418 188.918831 261.748161 191.126087 
C 259.540905 193.333344 258.300707 196.327446 258.300707 199.448979 
C 258.300707 202.570511 259.540905 205.564613 261.748161 207.77187 
C 263.955418 209.979126 266.94952 211.219324 270.071052 211.219324 
z
" clip-path="url(#p065e1033a8)" style="fill: #33a02c"/>
   </g>
   <g id="patch_35">
    <path d="M 309.305538 211.219324 
C 312.42707 211.219324 315.421172 209.979126 317.628429 207.77187 
C 319.835685 205.564613 321.075883 202.570511 321.075883 199.448979 
C 321.075883 196.327446 319.835685 193.333344 317.628429 191.126087 
C 315.421172 188.918831 312.42707 187.678633 309.305538 187.678633 
C 306.184006 187.678633 303.189903 188.918831 300.982647 191.126087 
C 298.77539 193.333344 297.535192 196.327446 297.535192 199.448979 
C 297.535192 202.570511 298.77539 205.564613 300.982647 207.77187 
C 303.189903 209.979126 306.184006 211.219324 309.305538 211.219324 
z
" clip-path="url(#p065e1033a8)" style="fill: #33a02c"/>
   </g>
   <g id="patch_36">
    <path d="M 348.540023 211.219324 
C 351.661555 211.219324 354.655658 209.979126 356.862914 207.77187 
C 359.070171 205.564613 360.310369 202.570511 360.310369 199.448979 
C 360.310369 196.327446 359.070171 193.333344 356.862914 191.126087 
C 354.655658 188.918831 351.661555 187.678633 348.540023 187.678633 
C 345.418491 187.678633 342.424388 188.918831 340.217132 191.126087 
C 338.009875 193.333344 336.769678 196.327446 336.769678 199.448979 
C 336.769678 202.570511 338.009875 205.564613 340.217132 207.77187 
C 342.424388 209.979126 345.418491 211.219324 348.540023 211.219324 
z
" clip-path="url(#p065e1033a8)" style="fill: #33a02c"/>
   </g>
   <g id="patch_37">
    <path d="M 387.774509 211.219324 
C 390.896041 211.219324 393.890143 209.979126 396.0974 207.77187 
C 398.304656 205.564613 399.544854 202.570511 399.544854 199.448979 
C 399.544854 196.327446 398.304656 193.333344 396.0974 191.126087 
C 393.890143 188.918831 390.896041 187.678633 387.774509 187.678633 
C 384.652976 187.678633 381.658874 188.918831 379.451617 191.126087 
C 377.244361 193.333344 376.004163 196.327446 376.004163 199.448979 
C 376.004163 202.570511 377.244361 205.564613 379.451617 207.77187 
C 381.658874 209.979126 384.652976 211.219324 387.774509 211.219324 
z
" clip-path="url(#p065e1033a8)" style="fill: #33a02c"/>
   </g>
   <g id="patch_38">
    <path d="M 270.071052 250.45381 
C 273.192584 250.45381 276.186687 249.213612 278.393944 247.006355 
C 280.6012 244.799099 281.841398 241.804996 281.841398 238.683464 
C 281.841398 235.561932 280.6012 232.567829 278.393944 230.360573 
C 276.186687 228.153316 273.192584 226.913118 270.071052 226.913118 
C 266.94952 226.913118 263.955418 228.153316 261.748161 230.360573 
C 259.540905 232.567829 258.300707 235.561932 258.300707 238.683464 
C 258.300707 241.804996 259.540905 244.799099 261.748161 247.006355 
C 263.955418 249.213612 266.94952 250.45381 270.071052 250.45381 
z
" clip-path="url(#p065e1033a8)" style="fill: #33a02c"/>
   </g>
   <g id="patch_39">
    <path d="M 309.305538 250.45381 
C 312.42707 250.45381 315.421172 249.213612 317.628429 247.006355 
C 319.835685 244.799099 321.075883 241.804996 321.075883 238.683464 
C 321.075883 235.561932 319.835685 232.567829 317.628429 230.360573 
C 315.421172 228.153316 312.42707 226.913118 309.305538 226.913118 
C 306.184006 226.913118 303.189903 228.153316 300.982647 230.360573 
C 298.77539 232.567829 297.535192 235.561932 297.535192 238.683464 
C 297.535192 241.804996 298.77539 244.799099 300.982647 247.006355 
C 303.189903 249.213612 306.184006 250.45381 309.305538 250.45381 
z
" clip-path="url(#p065e1033a8)" style="fill: #33a02c"/>
   </g>
   <g id="patch_40">
    <path d="M 348.540023 250.45381 
C 351.661555 250.45381 354.655658 249.213612 356.862914 247.006355 
C 359.070171 244.799099 360.310369 241.804996 360.310369 238.683464 
C 360.310369 235.561932 359.070171 232.567829 356.862914 230.360573 
C 354.655658 228.153316 351.661555 226.913118 348.540023 226.913118 
C 345.418491 226.913118 342.424388 228.153316 340.217132 230.360573 
C 338.009875 232.567829 336.769678 235.561932 336.769678 238.683464 
C 336.769678 241.804996 338.009875 244.799099 340.217132 247.006355 
C 342.424388 249.213612 345.418491 250.45381 348.540023 250.45381 
z
" clip-path="url(#p065e1033a8)" style="fill: #33a02c"/>
   </g>
   <g id="patch_41">
    <path d="M 387.774509 250.45381 
C 390.896041 250.45381 393.890143 249.213612 396.0974 247.006355 
C 398.304656 244.799099 399.544854 241.804996 399.544854 238.683464 
C 399.544854 235.561932 398.304656 232.567829 396.0974 230.360573 
C 393.890143 228.153316 390.896041 226.913118 387.774509 226.913118 
C 384.652976 226.913118 381.658874 228.153316 379.451617 230.360573 
C 377.244361 232.567829 376.004163 235.561932 376.004163 238.683464 
C 376.004163 241.804996 377.244361 244.799099 379.451617 247.006355 
C 381.658874 249.213612 384.652976 250.45381 387.774509 250.45381 
z
" clip-path="url(#p065e1033a8)" style="fill: #1f78b4"/>
   </g>
   <g id="text_1">
    <!-- Group A -->
    <g style="fill: #333333" transform="translate(71.783703 19.770747) scale(0.13 -0.13)">
     <defs>
      <path id="DejaVuSans-Bold-2a" d="M 4781 347 
Q 4331 128 3847 18 
Q 3363 -91 2847 -91 
Q 1681 -91 1000 561 
Q 319 1213 319 2328 
Q 319 3456 1012 4103 
Q 1706 4750 2913 4750 
Q 3378 4750 3804 4662 
Q 4231 4575 4609 4403 
L 4609 3438 
Q 4219 3659 3833 3768 
Q 3447 3878 3059 3878 
Q 2341 3878 1952 3476 
Q 1563 3075 1563 2328 
Q 1563 1588 1938 1184 
Q 2313 781 3003 781 
Q 3191 781 3352 804 
Q 3513 828 3641 878 
L 3641 1784 
L 2906 1784 
L 2906 2591 
L 4781 2591 
L 4781 347 
z
" transform="scale(0.015625)"/>
      <path id="DejaVuSans-Bold-55" d="M 3138 2547 
Q 2991 2616 2845 2648 
Q 2700 2681 2553 2681 
Q 2122 2681 1889 2404 
Q 1656 2128 1656 1613 
L 1656 0 
L 538 0 
L 538 3500 
L 1656 3500 
L 1656 2925 
Q 1872 3269 2151 3426 
Q 2431 3584 2822 3584 
Q 2878 3584 2943 3579 
Q 3009 3575 3134 3559 
L 3138 2547 
z
" transform="scale(0.015625)"/>
      <path id="DejaVuSans-Bold-52" d="M 2203 2784 
Q 1831 2784 1636 2517 
Q 1441 2250 1441 1747 
Q 1441 1244 1636 976 
Q 1831 709 2203 709 
Q 2569 709 2762 976 
Q 2956 1244 2956 1747 
Q 2956 2250 2762 2517 
Q 2569 2784 2203 2784 
z
M 2203 3584 
Q 3106 3584 3614 3096 
Q 4122 2609 4122 1747 
Q 4122 884 3614 396 
Q 3106 -91 2203 -91 
Q 1297 -91 786 396 
Q 275 884 275 1747 
Q 275 2609 786 3096 
Q 1297 3584 2203 3584 
z
" transform="scale(0.015625)"/>
      <path id="DejaVuSans-Bold-58" d="M 500 1363 
L 500 3500 
L 1625 3500 
L 1625 3150 
Q 1625 2866 1622 2436 
Q 1619 2006 1619 1863 
Q 1619 1441 1641 1255 
Q 1663 1069 1716 984 
Q 1784 875 1895 815 
Q 2006 756 2150 756 
Q 2500 756 2700 1025 
Q 2900 1294 2900 1772 
L 2900 3500 
L 4019 3500 
L 4019 0 
L 2900 0 
L 2900 506 
Q 2647 200 2364 54 
Q 2081 -91 1741 -91 
Q 1134 -91 817 281 
Q 500 653 500 1363 
z
" transform="scale(0.015625)"/>
      <path id="DejaVuSans-Bold-53" d="M 1656 506 
L 1656 -1331 
L 538 -1331 
L 538 3500 
L 1656 3500 
L 1656 2988 
Q 1888 3294 2169 3439 
Q 2450 3584 2816 3584 
Q 3463 3584 3878 3070 
Q 4294 2556 4294 1747 
Q 4294 938 3878 423 
Q 3463 -91 2816 -91 
Q 2450 -91 2169 54 
Q 1888 200 1656 506 
z
M 2400 2772 
Q 2041 2772 1848 2508 
Q 1656 2244 1656 1747 
Q 1656 1250 1848 986 
Q 2041 722 2400 722 
Q 2759 722 2948 984 
Q 3138 1247 3138 1747 
Q 3138 2247 2948 2509 
Q 2759 2772 2400 2772 
z
" transform="scale(0.015625)"/>
      <path id="DejaVuSans-Bold-3" transform="scale(0.015625)"/>
      <path id="DejaVuSans-Bold-24" d="M 3419 850 
L 1538 850 
L 1241 0 
L 31 0 
L 1759 4666 
L 3194 4666 
L 4922 0 
L 3713 0 
L 3419 850 
z
M 1838 1716 
L 3116 1716 
L 2478 3572 
L 1838 1716 
z
" transform="scale(0.015625)"/>
     </defs>
     <use xlink:href="#DejaVuSans-Bold-2a"/>
     <use xlink:href="#DejaVuSans-Bold-55" transform="translate(82.078125 0)"/>
     <use xlink:href="#DejaVuSans-Bold-52" transform="translate(131.390625 0)"/>
     <use xlink:href="#DejaVuSans-Bold-58" transform="translate(200.09375 0)"/>
     <use xlink:href="#DejaVuSans-Bold-53" transform="translate(271.28125 0)"/>
     <use xlink:href="#DejaVuSans-Bold-3" transform="translate(342.859375 0)"/>
     <use xlink:href="#DejaVuSans-Bold-24" transform="translate(377.671875 0)"/>
    </g>
   </g>
   <g id="text_2">
    <!-- 65% trait 1 -->
    <g style="fill: #333333" transform="translate(72.066124 34.103403) scale(0.105 -0.105)">
     <defs>
      <path id="DejaVuSans-19" d="M 2113 2584 
Q 1688 2584 1439 2293 
Q 1191 2003 1191 1497 
Q 1191 994 1439 701 
Q 1688 409 2113 409 
Q 2538 409 2786 701 
Q 3034 994 3034 1497 
Q 3034 2003 2786 2293 
Q 2538 2584 2113 2584 
z
M 3366 4563 
L 3366 3988 
Q 3128 4100 2886 4159 
Q 2644 4219 2406 4219 
Q 1781 4219 1451 3797 
Q 1122 3375 1075 2522 
Q 1259 2794 1537 2939 
Q 1816 3084 2150 3084 
Q 2853 3084 3261 2657 
Q 3669 2231 3669 1497 
Q 3669 778 3244 343 
Q 2819 -91 2113 -91 
Q 1303 -91 875 529 
Q 447 1150 447 2328 
Q 447 3434 972 4092 
Q 1497 4750 2381 4750 
Q 2619 4750 2861 4703 
Q 3103 4656 3366 4563 
z
" transform="scale(0.015625)"/>
      <path id="DejaVuSans-18" d="M 691 4666 
L 3169 4666 
L 3169 4134 
L 1269 4134 
L 1269 2991 
Q 1406 3038 1543 3061 
Q 1681 3084 1819 3084 
Q 2600 3084 3056 2656 
Q 3513 2228 3513 1497 
Q 3513 744 3044 326 
Q 2575 -91 1722 -91 
Q 1428 -91 1123 -41 
Q 819 9 494 109 
L 494 744 
Q 775 591 1075 516 
Q 1375 441 1709 441 
Q 2250 441 2565 725 
Q 2881 1009 2881 1497 
Q 2881 1984 2565 2268 
Q 2250 2553 1709 2553 
Q 1456 2553 1204 2497 
Q 953 2441 691 2322 
L 691 4666 
z
" transform="scale(0.015625)"/>
      <path id="DejaVuSans-8" d="M 4653 2053 
Q 4381 2053 4226 1822 
Q 4072 1591 4072 1178 
Q 4072 772 4226 539 
Q 4381 306 4653 306 
Q 4919 306 5073 539 
Q 5228 772 5228 1178 
Q 5228 1588 5073 1820 
Q 4919 2053 4653 2053 
z
M 4653 2450 
Q 5147 2450 5437 2106 
Q 5728 1763 5728 1178 
Q 5728 594 5436 251 
Q 5144 -91 4653 -91 
Q 4153 -91 3862 251 
Q 3572 594 3572 1178 
Q 3572 1766 3864 2108 
Q 4156 2450 4653 2450 
z
M 1428 4353 
Q 1159 4353 1004 4120 
Q 850 3888 850 3481 
Q 850 3069 1003 2837 
Q 1156 2606 1428 2606 
Q 1700 2606 1854 2837 
Q 2009 3069 2009 3481 
Q 2009 3884 1853 4118 
Q 1697 4353 1428 4353 
z
M 4250 4750 
L 4750 4750 
L 1831 -91 
L 1331 -91 
L 4250 4750 
z
M 1428 4750 
Q 1922 4750 2215 4408 
Q 2509 4066 2509 3481 
Q 2509 2891 2217 2550 
Q 1925 2209 1428 2209 
Q 931 2209 642 2551 
Q 353 2894 353 3481 
Q 353 4063 643 4406 
Q 934 4750 1428 4750 
z
" transform="scale(0.015625)"/>
      <path id="DejaVuSans-3" transform="scale(0.015625)"/>
      <path id="DejaVuSans-57" d="M 1172 4494 
L 1172 3500 
L 2356 3500 
L 2356 3053 
L 1172 3053 
L 1172 1153 
Q 1172 725 1289 603 
Q 1406 481 1766 481 
L 2356 481 
L 2356 0 
L 1766 0 
Q 1100 0 847 248 
Q 594 497 594 1153 
L 594 3053 
L 172 3053 
L 172 3500 
L 594 3500 
L 594 4494 
L 1172 4494 
z
" transform="scale(0.015625)"/>
      <path id="DejaVuSans-55" d="M 2631 2963 
Q 2534 3019 2420 3045 
Q 2306 3072 2169 3072 
Q 1681 3072 1420 2755 
Q 1159 2438 1159 1844 
L 1159 0 
L 581 0 
L 581 3500 
L 1159 3500 
L 1159 2956 
Q 1341 3275 1631 3429 
Q 1922 3584 2338 3584 
Q 2397 3584 2469 3576 
Q 2541 3569 2628 3553 
L 2631 2963 
z
" transform="scale(0.015625)"/>
      <path id="DejaVuSans-44" d="M 2194 1759 
Q 1497 1759 1228 1600 
Q 959 1441 959 1056 
Q 959 750 1161 570 
Q 1363 391 1709 391 
Q 2188 391 2477 730 
Q 2766 1069 2766 1631 
L 2766 1759 
L 2194 1759 
z
M 3341 1997 
L 3341 0 
L 2766 0 
L 2766 531 
Q 2569 213 2275 61 
Q 1981 -91 1556 -91 
Q 1019 -91 701 211 
Q 384 513 384 1019 
Q 384 1609 779 1909 
Q 1175 2209 1959 2209 
L 2766 2209 
L 2766 2266 
Q 2766 2663 2505 2880 
Q 2244 3097 1772 3097 
Q 1472 3097 1187 3025 
Q 903 2953 641 2809 
L 641 3341 
Q 956 3463 1253 3523 
Q 1550 3584 1831 3584 
Q 2591 3584 2966 3190 
Q 3341 2797 3341 1997 
z
" transform="scale(0.015625)"/>
      <path id="DejaVuSans-4c" d="M 603 3500 
L 1178 3500 
L 1178 0 
L 603 0 
L 603 3500 
z
M 603 4863 
L 1178 4863 
L 1178 4134 
L 603 4134 
L 603 4863 
z
" transform="scale(0.015625)"/>
      <path id="DejaVuSans-14" d="M 794 531 
L 1825 531 
L 1825 4091 
L 703 3866 
L 703 4441 
L 1819 4666 
L 2450 4666 
L 2450 531 
L 3481 531 
L 3481 0 
L 794 0 
L 794 531 
z
" transform="scale(0.015625)"/>
     </defs>
     <use xlink:href="#DejaVuSans-19"/>
     <use xlink:href="#DejaVuSans-18" transform="translate(63.625 0)"/>
     <use xlink:href="#DejaVuSans-8" transform="translate(127.25 0)"/>
     <use xlink:href="#DejaVuSans-3" transform="translate(222.265625 0)"/>
     <use xlink:href="#DejaVuSans-57" transform="translate(254.046875 0)"/>
     <use xlink:href="#DejaVuSans-55" transform="translate(293.25 0)"/>
     <use xlink:href="#DejaVuSans-44" transform="translate(334.359375 0)"/>
     <use xlink:href="#DejaVuSans-4c" transform="translate(395.640625 0)"/>
     <use xlink:href="#DejaVuSans-57" transform="translate(423.421875 0)"/>
     <use xlink:href="#DejaVuSans-3" transform="translate(462.625 0)"/>
     <use xlink:href="#DejaVuSans-14" transform="translate(494.40625 0)"/>
    </g>
   </g>
   <g id="text_3">
    <!-- Group B -->
    <g style="fill: #333333" transform="translate(185.639882 19.770747) scale(0.13 -0.13)">
     <defs>
      <path id="DejaVuSans-Bold-25" d="M 2456 2859 
Q 2741 2859 2887 2984 
Q 3034 3109 3034 3353 
Q 3034 3594 2887 3720 
Q 2741 3847 2456 3847 
L 1791 3847 
L 1791 2859 
L 2456 2859 
z
M 2497 819 
Q 2859 819 3042 972 
Q 3225 1125 3225 1434 
Q 3225 1738 3044 1889 
Q 2863 2041 2497 2041 
L 1791 2041 
L 1791 819 
L 2497 819 
z
M 3616 2497 
Q 4003 2384 4215 2081 
Q 4428 1778 4428 1338 
Q 4428 663 3972 331 
Q 3516 0 2584 0 
L 588 0 
L 588 4666 
L 2394 4666 
Q 3366 4666 3802 4372 
Q 4238 4078 4238 3431 
Q 4238 3091 4078 2852 
Q 3919 2613 3616 2497 
z
" transform="scale(0.015625)"/>
     </defs>
     <use xlink:href="#DejaVuSans-Bold-2a"/>
     <use xlink:href="#DejaVuSans-Bold-55" transform="translate(82.078125 0)"/>
     <use xlink:href="#DejaVuSans-Bold-52" transform="translate(131.390625 0)"/>
     <use xlink:href="#DejaVuSans-Bold-58" transform="translate(200.09375 0)"/>
     <use xlink:href="#DejaVuSans-Bold-53" transform="translate(271.28125 0)"/>
     <use xlink:href="#DejaVuSans-Bold-3" transform="translate(342.859375 0)"/>
     <use xlink:href="#DejaVuSans-Bold-25" transform="translate(377.671875 0)"/>
    </g>
   </g>
   <g id="text_4">
    <!-- 95% trait 1 -->
    <g style="fill: #333333" transform="translate(185.846132 34.103403) scale(0.105 -0.105)">
     <defs>
      <path id="DejaVuSans-1c" d="M 703 97 
L 703 672 
Q 941 559 1184 500 
Q 1428 441 1663 441 
Q 2288 441 2617 861 
Q 2947 1281 2994 2138 
Q 2813 1869 2534 1725 
Q 2256 1581 1919 1581 
Q 1219 1581 811 2004 
Q 403 2428 403 3163 
Q 403 3881 828 4315 
Q 1253 4750 1959 4750 
Q 2769 4750 3195 4129 
Q 3622 3509 3622 2328 
Q 3622 1225 3098 567 
Q 2575 -91 1691 -91 
Q 1453 -91 1209 -44 
Q 966 3 703 97 
z
M 1959 2075 
Q 2384 2075 2632 2365 
Q 2881 2656 2881 3163 
Q 2881 3666 2632 3958 
Q 2384 4250 1959 4250 
Q 1534 4250 1286 3958 
Q 1038 3666 1038 3163 
Q 1038 2656 1286 2365 
Q 1534 2075 1959 2075 
z
" transform="scale(0.015625)"/>
     </defs>
     <use xlink:href="#DejaVuSans-1c"/>
     <use xlink:href="#DejaVuSans-18" transform="translate(63.625 0)"/>
     <use xlink:href="#DejaVuSans-8" transform="translate(127.25 0)"/>
     <use xlink:href="#DejaVuSans-3" transform="translate(222.265625 0)"/>
     <use xlink:href="#DejaVuSans-57" transform="translate(254.046875 0)"/>
     <use xlink:href="#DejaVuSans-55" transform="translate(293.25 0)"/>
     <use xlink:href="#DejaVuSans-44" transform="translate(334.359375 0)"/>
     <use xlink:href="#DejaVuSans-4c" transform="translate(395.640625 0)"/>
     <use xlink:href="#DejaVuSans-57" transform="translate(423.421875 0)"/>
     <use xlink:href="#DejaVuSans-3" transform="translate(462.625 0)"/>
     <use xlink:href="#DejaVuSans-14" transform="translate(494.40625 0)"/>
    </g>
   </g>
   <g id="text_5">
    <!-- Triangle = group A, circle = group B.   Green = trait 1, blue = trait 2. -->
    <g style="fill: #555555" transform="translate(68.833202 282.088014) scale(0.085 -0.085)">
     <defs>
      <path id="DejaVuSans-37" d="M -19 4666 
L 3928 4666 
L 3928 4134 
L 2272 4134 
L 2272 0 
L 1638 0 
L 1638 4134 
L -19 4134 
L -19 4666 
z
" transform="scale(0.015625)"/>
      <path id="DejaVuSans-51" d="M 3513 2113 
L 3513 0 
L 2938 0 
L 2938 2094 
Q 2938 2591 2744 2837 
Q 2550 3084 2163 3084 
Q 1697 3084 1428 2787 
Q 1159 2491 1159 1978 
L 1159 0 
L 581 0 
L 581 3500 
L 1159 3500 
L 1159 2956 
Q 1366 3272 1645 3428 
Q 1925 3584 2291 3584 
Q 2894 3584 3203 3211 
Q 3513 2838 3513 2113 
z
" transform="scale(0.015625)"/>
      <path id="DejaVuSans-4a" d="M 2906 1791 
Q 2906 2416 2648 2759 
Q 2391 3103 1925 3103 
Q 1463 3103 1205 2759 
Q 947 2416 947 1791 
Q 947 1169 1205 825 
Q 1463 481 1925 481 
Q 2391 481 2648 825 
Q 2906 1169 2906 1791 
z
M 3481 434 
Q 3481 -459 3084 -895 
Q 2688 -1331 1869 -1331 
Q 1566 -1331 1297 -1286 
Q 1028 -1241 775 -1147 
L 775 -588 
Q 1028 -725 1275 -790 
Q 1522 -856 1778 -856 
Q 2344 -856 2625 -561 
Q 2906 -266 2906 331 
L 2906 616 
Q 2728 306 2450 153 
Q 2172 0 1784 0 
Q 1141 0 747 490 
Q 353 981 353 1791 
Q 353 2603 747 3093 
Q 1141 3584 1784 3584 
Q 2172 3584 2450 3431 
Q 2728 3278 2906 2969 
L 2906 3500 
L 3481 3500 
L 3481 434 
z
" transform="scale(0.015625)"/>
      <path id="DejaVuSans-4f" d="M 603 4863 
L 1178 4863 
L 1178 0 
L 603 0 
L 603 4863 
z
" transform="scale(0.015625)"/>
      <path id="DejaVuSans-48" d="M 3597 1894 
L 3597 1613 
L 953 1613 
Q 991 1019 1311 708 
Q 1631 397 2203 397 
Q 2534 397 2845 478 
Q 3156 559 3463 722 
L 3463 178 
Q 3153 47 2828 -22 
Q 2503 -91 2169 -91 
Q 1331 -91 842 396 
Q 353 884 353 1716 
Q 353 2575 817 3079 
Q 1281 3584 2069 3584 
Q 2775 3584 3186 3129 
Q 3597 2675 3597 1894 
z
M 3022 2063 
Q 3016 2534 2758 2815 
Q 2500 3097 2075 3097 
Q 1594 3097 1305 2825 
Q 1016 2553 972 2059 
L 3022 2063 
z
" transform="scale(0.015625)"/>
      <path id="DejaVuSans-20" d="M 678 2906 
L 4684 2906 
L 4684 2381 
L 678 2381 
L 678 2906 
z
M 678 1631 
L 4684 1631 
L 4684 1100 
L 678 1100 
L 678 1631 
z
" transform="scale(0.015625)"/>
      <path id="DejaVuSans-52" d="M 1959 3097 
Q 1497 3097 1228 2736 
Q 959 2375 959 1747 
Q 959 1119 1226 758 
Q 1494 397 1959 397 
Q 2419 397 2687 759 
Q 2956 1122 2956 1747 
Q 2956 2369 2687 2733 
Q 2419 3097 1959 3097 
z
M 1959 3584 
Q 2709 3584 3137 3096 
Q 3566 2609 3566 1747 
Q 3566 888 3137 398 
Q 2709 -91 1959 -91 
Q 1206 -91 779 398 
Q 353 888 353 1747 
Q 353 2609 779 3096 
Q 1206 3584 1959 3584 
z
" transform="scale(0.015625)"/>
      <path id="DejaVuSans-58" d="M 544 1381 
L 544 3500 
L 1119 3500 
L 1119 1403 
Q 1119 906 1312 657 
Q 1506 409 1894 409 
Q 2359 409 2629 706 
Q 2900 1003 2900 1516 
L 2900 3500 
L 3475 3500 
L 3475 0 
L 2900 0 
L 2900 538 
Q 2691 219 2414 64 
Q 2138 -91 1772 -91 
Q 1169 -91 856 284 
Q 544 659 544 1381 
z
M 1991 3584 
L 1991 3584 
z
" transform="scale(0.015625)"/>
      <path id="DejaVuSans-53" d="M 1159 525 
L 1159 -1331 
L 581 -1331 
L 581 3500 
L 1159 3500 
L 1159 2969 
Q 1341 3281 1617 3432 
Q 1894 3584 2278 3584 
Q 2916 3584 3314 3078 
Q 3713 2572 3713 1747 
Q 3713 922 3314 415 
Q 2916 -91 2278 -91 
Q 1894 -91 1617 61 
Q 1341 213 1159 525 
z
M 3116 1747 
Q 3116 2381 2855 2742 
Q 2594 3103 2138 3103 
Q 1681 3103 1420 2742 
Q 1159 2381 1159 1747 
Q 1159 1113 1420 752 
Q 1681 391 2138 391 
Q 2594 391 2855 752 
Q 3116 1113 3116 1747 
z
" transform="scale(0.015625)"/>
      <path id="DejaVuSans-24" d="M 2188 4044 
L 1331 1722 
L 3047 1722 
L 2188 4044 
z
M 1831 4666 
L 2547 4666 
L 4325 0 
L 3669 0 
L 3244 1197 
L 1141 1197 
L 716 0 
L 50 0 
L 1831 4666 
z
" transform="scale(0.015625)"/>
      <path id="DejaVuSans-f" d="M 750 794 
L 1409 794 
L 1409 256 
L 897 -744 
L 494 -744 
L 750 256 
L 750 794 
z
" transform="scale(0.015625)"/>
      <path id="DejaVuSans-46" d="M 3122 3366 
L 3122 2828 
Q 2878 2963 2633 3030 
Q 2388 3097 2138 3097 
Q 1578 3097 1268 2742 
Q 959 2388 959 1747 
Q 959 1106 1268 751 
Q 1578 397 2138 397 
Q 2388 397 2633 464 
Q 2878 531 3122 666 
L 3122 134 
Q 2881 22 2623 -34 
Q 2366 -91 2075 -91 
Q 1284 -91 818 406 
Q 353 903 353 1747 
Q 353 2603 823 3093 
Q 1294 3584 2113 3584 
Q 2378 3584 2631 3529 
Q 2884 3475 3122 3366 
z
" transform="scale(0.015625)"/>
      <path id="DejaVuSans-25" d="M 1259 2228 
L 1259 519 
L 2272 519 
Q 2781 519 3026 730 
Q 3272 941 3272 1375 
Q 3272 1813 3026 2020 
Q 2781 2228 2272 2228 
L 1259 2228 
z
M 1259 4147 
L 1259 2741 
L 2194 2741 
Q 2656 2741 2882 2914 
Q 3109 3088 3109 3444 
Q 3109 3797 2882 3972 
Q 2656 4147 2194 4147 
L 1259 4147 
z
M 628 4666 
L 2241 4666 
Q 2963 4666 3353 4366 
Q 3744 4066 3744 3513 
Q 3744 3084 3544 2831 
Q 3344 2578 2956 2516 
Q 3422 2416 3680 2098 
Q 3938 1781 3938 1306 
Q 3938 681 3513 340 
Q 3088 0 2303 0 
L 628 0 
L 628 4666 
z
" transform="scale(0.015625)"/>
      <path id="DejaVuSans-11" d="M 684 794 
L 1344 794 
L 1344 0 
L 684 0 
L 684 794 
z
" transform="scale(0.015625)"/>
      <path id="DejaVuSans-2a" d="M 3809 666 
L 3809 1919 
L 2778 1919 
L 2778 2438 
L 4434 2438 
L 4434 434 
Q 4069 175 3628 42 
Q 3188 -91 2688 -91 
Q 1594 -91 976 548 
Q 359 1188 359 2328 
Q 359 3472 976 4111 
Q 1594 4750 2688 4750 
Q 3144 4750 3555 4637 
Q 3966 4525 4313 4306 
L 4313 3634 
Q 3963 3931 3569 4081 
Q 3175 4231 2741 4231 
Q 1884 4231 1454 3753 
Q 1025 3275 1025 2328 
Q 1025 1384 1454 906 
Q 1884 428 2741 428 
Q 3075 428 3337 486 
Q 3600 544 3809 666 
z
" transform="scale(0.015625)"/>
      <path id="DejaVuSans-45" d="M 3116 1747 
Q 3116 2381 2855 2742 
Q 2594 3103 2138 3103 
Q 1681 3103 1420 2742 
Q 1159 2381 1159 1747 
Q 1159 1113 1420 752 
Q 1681 391 2138 391 
Q 2594 391 2855 752 
Q 3116 1113 3116 1747 
z
M 1159 2969 
Q 1341 3281 1617 3432 
Q 1894 3584 2278 3584 
Q 2916 3584 3314 3078 
Q 3713 2572 3713 1747 
Q 3713 922 3314 415 
Q 2916 -91 2278 -91 
Q 1894 -91 1617 61 
Q 1341 213 1159 525 
L 1159 0 
L 581 0 
L 581 4863 
L 1159 4863 
L 1159 2969 
z
" transform="scale(0.015625)"/>
      <path id="DejaVuSans-15" d="M 1228 531 
L 3431 531 
L 3431 0 
L 469 0 
L 469 531 
Q 828 903 1448 1529 
Q 2069 2156 2228 2338 
Q 2531 2678 2651 2914 
Q 2772 3150 2772 3378 
Q 2772 3750 2511 3984 
Q 2250 4219 1831 4219 
Q 1534 4219 1204 4116 
Q 875 4013 500 3803 
L 500 4441 
Q 881 4594 1212 4672 
Q 1544 4750 1819 4750 
Q 2544 4750 2975 4387 
Q 3406 4025 3406 3419 
Q 3406 3131 3298 2873 
Q 3191 2616 2906 2266 
Q 2828 2175 2409 1742 
Q 1991 1309 1228 531 
z
" transform="scale(0.015625)"/>
     </defs>
     <use xlink:href="#DejaVuSans-37"/>
     <use xlink:href="#DejaVuSans-55" transform="translate(46.375 0)"/>
     <use xlink:href="#DejaVuSans-4c" transform="translate(87.484375 0)"/>
     <use xlink:href="#DejaVuSans-44" transform="translate(115.265625 0)"/>
     <use xlink:href="#DejaVuSans-51" transform="translate(176.546875 0)"/>
     <use xlink:href="#DejaVuSans-4a" transform="translate(239.921875 0)"/>
     <use xlink:href="#DejaVuSans-4f" transform="translate(303.40625 0)"/>
     <use xlink:href="#DejaVuSans-48" transform="translate(331.1875 0)"/>
     <use xlink:href="#DejaVuSans-3" transform="translate(392.71875 0)"/>
     <use xlink:href="#DejaVuSans-20" transform="translate(424.5 0)"/>
     <use xlink:href="#DejaVuSans-3" transform="translate(508.296875 0)"/>
     <use xlink:href="#DejaVuSans-4a" transform="translate(540.078125 0)"/>
     <use xlink:href="#DejaVuSans-55" transform="translate(603.5625 0)"/>
     <use xlink:href="#DejaVuSans-52" transform="translate(642.46875 0)"/>
     <use xlink:href="#DejaVuSans-58" transform="translate(703.65625 0)"/>
     <use xlink:href="#DejaVuSans-53" transform="translate(767.03125 0)"/>
     <use xlink:href="#DejaVuSans-3" transform="translate(830.515625 0)"/>
     <use xlink:href="#DejaVuSans-24" transform="translate(862.296875 0)"/>
     <use xlink:href="#DejaVuSans-f" transform="translate(930.703125 0)"/>
     <use xlink:href="#DejaVuSans-3" transform="translate(962.484375 0)"/>
     <use xlink:href="#DejaVuSans-46" transform="translate(994.265625 0)"/>
     <use xlink:href="#DejaVuSans-4c" transform="translate(1049.25 0)"/>
     <use xlink:href="#DejaVuSans-55" transform="translate(1077.03125 0)"/>
     <use xlink:href="#DejaVuSans-46" transform="translate(1115.9375 0)"/>
     <use xlink:href="#DejaVuSans-4f" transform="translate(1170.921875 0)"/>
     <use xlink:href="#DejaVuSans-48" transform="translate(1198.703125 0)"/>
     <use xlink:href="#DejaVuSans-3" transform="translate(1260.234375 0)"/>
     <use xlink:href="#DejaVuSans-20" transform="translate(1292.015625 0)"/>
     <use xlink:href="#DejaVuSans-3" transform="translate(1375.8125 0)"/>
     <use xlink:href="#DejaVuSans-4a" transform="translate(1407.59375 0)"/>
     <use xlink:href="#DejaVuSans-55" transform="translate(1471.078125 0)"/>
     <use xlink:href="#DejaVuSans-52" transform="translate(1509.984375 0)"/>
     <use xlink:href="#DejaVuSans-58" transform="translate(1571.171875 0)"/>
     <use xlink:href="#DejaVuSans-53" transform="translate(1634.546875 0)"/>
     <use xlink:href="#DejaVuSans-3" transform="translate(1698.03125 0)"/>
     <use xlink:href="#DejaVuSans-25" transform="translate(1729.8125 0)"/>
     <use xlink:href="#DejaVuSans-11" transform="translate(1798.421875 0)"/>
     <use xlink:href="#DejaVuSans-3" transform="translate(1830.203125 0)"/>
     <use xlink:href="#DejaVuSans-3" transform="translate(1861.984375 0)"/>
     <use xlink:href="#DejaVuSans-3" transform="translate(1893.765625 0)"/>
     <use xlink:href="#DejaVuSans-2a" transform="translate(1925.546875 0)"/>
     <use xlink:href="#DejaVuSans-55" transform="translate(2003.03125 0)"/>
     <use xlink:href="#DejaVuSans-48" transform="translate(2041.9375 0)"/>
     <use xlink:href="#DejaVuSans-48" transform="translate(2103.46875 0)"/>
     <use xlink:href="#DejaVuSans-51" transform="translate(2165 0)"/>
     <use xlink:href="#DejaVuSans-3" transform="translate(2228.375 0)"/>
     <use xlink:href="#DejaVuSans-20" transform="translate(2260.15625 0)"/>
     <use xlink:href="#DejaVuSans-3" transform="translate(2343.953125 0)"/>
     <use xlink:href="#DejaVuSans-57" transform="translate(2375.734375 0)"/>
     <use xlink:href="#DejaVuSans-55" transform="translate(2414.9375 0)"/>
     <use xlink:href="#DejaVuSans-44" transform="translate(2456.046875 0)"/>
     <use xlink:href="#DejaVuSans-4c" transform="translate(2517.328125 0)"/>
     <use xlink:href="#DejaVuSans-57" transform="translate(2545.109375 0)"/>
     <use xlink:href="#DejaVuSans-3" transform="translate(2584.3125 0)"/>
     <use xlink:href="#DejaVuSans-14" transform="translate(2616.09375 0)"/>
     <use xlink:href="#DejaVuSans-f" transform="translate(2679.71875 0)"/>
     <use xlink:href="#DejaVuSans-3" transform="translate(2711.5 0)"/>
     <use xlink:href="#DejaVuSans-45" transform="translate(2743.28125 0)"/>
     <use xlink:href="#DejaVuSans-4f" transform="translate(2806.765625 0)"/>
     <use xlink:href="#DejaVuSans-58" transform="translate(2834.546875 0)"/>
     <use xlink:href="#DejaVuSans-48" transform="translate(2897.921875 0)"/>
     <use xlink:href="#DejaVuSans-3" transform="translate(2959.453125 0)"/>
     <use xlink:href="#DejaVuSans-20" transform="translate(2991.234375 0)"/>
     <use xlink:href="#DejaVuSans-3" transform="translate(3075.03125 0)"/>
     <use xlink:href="#DejaVuSans-57" transform="translate(3106.8125 0)"/>
     <use xlink:href="#DejaVuSans-55" transform="translate(3146.015625 0)"/>
     <use xlink:href="#DejaVuSans-44" transform="translate(3187.125 0)"/>
     <use xlink:href="#DejaVuSans-4c" transform="translate(3248.40625 0)"/>
     <use xlink:href="#DejaVuSans-57" transform="translate(3276.1875 0)"/>
     <use xlink:href="#DejaVuSans-3" transform="translate(3315.390625 0)"/>
     <use xlink:href="#DejaVuSans-15" transform="translate(3347.171875 0)"/>
     <use xlink:href="#DejaVuSans-11" transform="translate(3410.796875 0)"/>
    </g>
   </g>
  </g>
 </g>
 <defs>
  <clipPath id="p065e1033a8">
   <rect x="7.2" y="7.2" width="415.885545" height="286.411744"/>
  </clipPath>
 </defs>
</svg>
