<?xml version="1.0" standalone="no"?>
<!DOCTYPE svg PUBLIC "-//W3C//DTD SVG 20010904//EN"
 "http://www.w3.org/TR/2001/REC-SVG-20010904/DTD/svg10.dtd">
<svg version="1.0" xmlns="http://www.w3.org/2000/svg"
 viewBox="0 0 260 260"
 preserveAspectRatio="xMidYMid meet">
<metadata>
Created by potrace 1.11, written by Peter Selinger 2001-2013
</metadata>
<g transform="translate(0.000000,260.000000) scale(0.100000,-0.100000)"
fill="#000000" stroke="none">
<path d="M2008 2580 c-122 -65 -117 -245 8 -305 49 -23 129 -17 173 14 71 51
91 150 45 229 -44 75 -146 104 -226 62z"/>
<path d="M1707 2219 c-61 -9 -126 -48 -170 -100 -42 -49 -52 -78 -29 -86 145
-50 265 -119 366 -214 90 -85 91 -91 14 -130 -120 -61 -268 -30 -349 72 -43
55 -68 129 -63 188 3 25 5 57 7 71 2 23 -3 25 -63 37 -36 7 -110 13 -165 13
-95 0 -122 -2 -190 -17 -16 -4 -35 -8 -42 -9 -26 -5 -91 -27 -130 -45 -41 -18
-43 -21 -44 -62 -1 -70 -1 -440 0 -465 1 -23 3 -23 94 -22 50 1 129 1 174 1
l82 -1 -1 -60 -1 -60 -174 0 c-158 0 -173 -2 -174 -17 -4 -110 0 -687 5 -710
11 -47 58 -86 108 -89 98 -5 162 77 175 221 l6 75 50 0 50 0 -6 -68 c-21 -230
-160 -380 -357 -384 l-55 -1 61 -28 c115 -52 215 -72 364 -73 109 0 151 5 220
23 83 22 265 99 255 109 -2 3 -70 5 -150 4 l-145 0 0 52 0 52 48 0 c74 1 98
10 112 45 18 43 19 694 1 728 -18 34 -71 61 -118 61 l-41 0 -4 51 c-1 28 -1
55 2 60 5 7 345 14 446 10 21 -1 21 -2 21 -451 0 -248 3 -453 7 -458 18 -17
133 148 183 263 55 128 68 194 67 360 -1 119 -5 166 -22 230 -24 87 -98 245
-143 301 l-28 35 31 50 c43 68 57 128 46 196 -16 102 -72 177 -163 218 -61 28
-105 34 -168 24z"/>
<path d="M683 1873 c-78 -63 -135 -125 -190 -207 -53 -78 -117 -219 -103 -224
11 -4 100 24 135 42 81 42 147 127 188 242 24 68 46 194 34 194 -4 0 -32 -21
-64 -47z"/>
<path d="M347 1293 c-6 -44 -2 -268 6 -298 22 -87 31 -117 49 -165 12 -30 41
-89 65 -130 48 -82 100 -149 88 -115 -3 11 -6 183 -6 383 l0 362 -98 0 -99 0
-5 -37z"/>
<path d="M533 340 c-82 -18 -136 -84 -137 -168 -1 -93 60 -161 153 -170 140
-13 231 132 160 257 -33 59 -111 94 -176 81z"/>
</g>
</svg>
