<svg xmlns="http://www.w3.org/2000/svg" viewBox="0 0 28 28" fill="#000000">
  <!-- UvA Amsterdam mark: U with three St. Andrew's crosses -->
  <!-- Bottom cross -->
  <path d="M16.045 1.359L10.683 6.734l1.166 1.163L17.211 2.522z"/>
  <path d="M11.705 1.343L10.542 2.509l5.374 5.363 1.164-1.166z"/>
  <!-- Middle cross -->
  <path d="M16.058 12.201l-5.364 5.375 1.166 1.163 5.364-5.375z"/>
  <path d="M11.717 12.188l-1.163 1.166 5.375 5.362 1.163-1.166z"/>
  <!-- Top cross -->
  <path d="M16.05 20.329l-5.363 5.374 1.166 1.163 5.363-5.374z"/>
  <path d="M11.71 20.313l-1.163 1.166 5.375 5.364 1.163-1.166z"/>
  <!-- U shape -->
  <path d="M7.433 19.495s.68-.028 1.144-.03c.571-.004 1.063.125 1.075.05.024-.138.039-6.246.039-6.246s.067-1.304.387-1.967c.561-1.166 3.064-1.262 3.064-1.262s.388-.046 1.258.021c.868.068 2.563.318 3.112 1.345 0 0 .389.436.53 2.905.147 2.586-.199 5.148-.199 5.148l2.425.111s-.164-1.828-.168-5.26c-.003-3.432.314-5.446.314-5.446l-2.403-.706.003 2.54-1.143-1.074s-.667-.685-2.176-1.073c-1.508-.388-2.653-.318-3.338-.179-.687.138-1.304.321-1.693.505-.389.183-1.075.526-1.691 1.489-.365.569-.365 1.99-.365 1.99l.028 2.654-.202 4.484"/>
</svg>
